<?xml version="1.0" encoding="UTF-8"?>
<svg version="1.1" xmlns="http://www.w3.org/2000/svg" width="500" height="500">
<path d="M0 0 C1.13175659 0.00131424 1.13175659 0.00131424 2.28637695 0.00265503 C13.75415224 0.04660044 24.51799625 0.63986793 35.4375 4.375 C36.18338379 4.62169434 36.92926758 4.86838867 37.69775391 5.12255859 C51.09246584 9.65046599 62.61220075 15.98843645 73.6328125 24.9296875 C75.58591445 26.53688848 75.58591445 26.53688848 78.4375 28.375 C78.4375 29.035 78.4375 29.695 78.4375 30.375 C79.0975 30.375 79.7575 30.375 80.4375 30.375 C80.4375 31.035 80.4375 31.695 80.4375 32.375 C81.03046875 32.6328125 81.6234375 32.890625 82.234375 33.15625 C84.61410965 34.47269895 85.94728792 35.80080782 87.6875 37.875 C88.20828125 38.4834375 88.7290625 39.091875 89.265625 39.71875 C90.4375 41.375 90.4375 41.375 90.4375 43.375 C91.0975 43.375 91.7575 43.375 92.4375 43.375 C94.03454238 45.74374756 95.5024879 48.09822203 96.9375 50.5625 C97.34097656 51.23603516 97.74445313 51.90957031 98.16015625 52.60351562 C101.3305387 57.96596119 101.3305387 57.96596119 102.1484375 61.09375 C104.36571339 65.01765643 108.51631334 66.05477384 112.5625 67.6875 C113.41199219 68.04650391 114.26148438 68.40550781 115.13671875 68.77539062 C117.23095106 69.65779188 119.3305925 70.52341325 121.4375 71.375 C121.4375 72.035 121.4375 72.695 121.4375 73.375 C122.00726563 73.47425781 122.57703125 73.57351562 123.1640625 73.67578125 C129.84712002 75.73122334 135.82706863 82.29170387 140.4375 87.375 C140.4375 88.035 140.4375 88.695 140.4375 89.375 C141.0975 89.375 141.7575 89.375 142.4375 89.375 C155.36134599 106.40519114 158.91746819 125.66837817 156.13720703 146.64013672 C154.54125177 154.49792921 150.56446334 161.58547967 146.4375 168.375 C145.84195313 169.37273437 145.84195313 169.37273437 145.234375 170.390625 C144.1875 172.0625 144.1875 172.0625 142.4375 174.375 C141.7775 174.375 141.1175 174.375 140.4375 174.375 C139.7775 175.695 139.1175 177.015 138.4375 178.375 C137.7775 178.375 137.1175 178.375 136.4375 178.375 C136.06431641 179.26058594 136.06431641 179.26058594 135.68359375 180.1640625 C129.70829717 190.76599938 112.40473775 197.02659556 101.4375 200.375 C92.45722463 202.71555594 83.45242712 202.71526236 74.23901367 202.69067383 C71.74419251 202.68749259 69.25053661 202.71112442 66.75585938 202.73632812 C65.1458348 202.7385999 63.5358071 202.73930518 61.92578125 202.73828125 C60.82548332 202.75209587 60.82548332 202.75209587 59.70295715 202.76618958 C52.31461652 202.70088079 45.85724597 200.63534168 40.4375 195.375 C37.53702323 190.68725761 37.817889 185.71139972 38.4375 180.375 C40.75833891 175.46553307 43.73909653 173.01785195 48.4375 170.375 C52.01060894 169.15024425 55.40107582 169.30643665 59.15234375 169.3828125 C60.49283055 169.40036093 61.8333259 169.41726602 63.17382812 169.43359375 C65.26009634 169.46421341 67.34591906 169.49934417 69.43188477 169.54638672 C82.9539322 169.83460663 94.49379746 168.03971799 106.4375 161.375 C107.76762391 160.70195274 109.09994751 160.03316075 110.4375 159.375 C110.4375 158.715 110.4375 158.055 110.4375 157.375 C111.0975 157.375 111.7575 157.375 112.4375 157.375 C112.70304687 156.83359375 112.96859375 156.2921875 113.2421875 155.734375 C114.10258199 154.03608 115.00964845 152.36114109 115.9453125 150.703125 C121.12541583 140.84341142 122.26609248 131.88371307 119.62890625 121.0546875 C118.37784026 117.40371671 117.13134118 114.29570572 114.80078125 111.203125 C113.4375 109.375 113.4375 109.375 113.4375 107.375 C112.7775 107.375 112.1175 107.375 111.4375 107.375 C110.756875 106.653125 110.07625 105.93125 109.375 105.1875 C102.36444908 97.88657123 92.87130112 95.17569842 83.0625 94.75 C82.32644531 94.71132812 81.59039062 94.67265625 80.83203125 94.6328125 C79.03422594 94.53942002 77.23589892 94.4561629 75.4375 94.375 C75.15777344 93.29863281 74.87804687 92.22226563 74.58984375 91.11328125 C72.20760226 82.31707945 69.42653061 74.71025684 64.79296875 66.81640625 C63.4375 64.375 63.4375 64.375 63.4375 62.375 C62.7775 62.375 62.1175 62.375 61.4375 62.375 C59.9921875 60.87109375 59.9921875 60.87109375 58.3125 58.8125 C46.35005778 44.79864724 30.50702579 35.65300624 12.1015625 33.6171875 C-10.68072391 32.11132209 -31.09240129 35.12422293 -49.3984375 49.7109375 C-51.39161519 51.2435976 -53.2786967 52.34259577 -55.5625 53.375 C-55.5625 54.035 -55.5625 54.695 -55.5625 55.375 C-56.2225 55.375 -56.8825 55.375 -57.5625 55.375 C-57.82417969 55.93960938 -58.08585938 56.50421875 -58.35546875 57.0859375 C-59.66940623 59.57774126 -61.20771642 61.73012834 -62.875 64 C-66.34976766 68.88502901 -69.05338423 73.94050963 -71.5625 79.375 C-75.1220292 78.78625658 -78.34371693 77.74828908 -81.7253418 76.50756836 C-95.81879328 71.51515124 -110.71497191 71.36950705 -124.5625 77.375 C-131.37062304 80.51409792 -131.37062304 80.51409792 -137.2421875 85.05859375 C-138.5625 86.375 -138.5625 86.375 -140.5625 86.375 C-140.5625 87.035 -140.5625 87.695 -140.5625 88.375 C-141.2225 88.375 -141.8825 88.375 -142.5625 88.375 C-142.5625 89.035 -142.5625 89.695 -142.5625 90.375 C-143.2225 90.375 -143.8825 90.375 -144.5625 90.375 C-145.2225 92.355 -145.8825 94.335 -146.5625 96.375 C-147.2225 96.375 -147.8825 96.375 -148.5625 96.375 C-148.706875 96.973125 -148.85125 97.57125 -149 98.1875 C-149.4497439 99.93650404 -149.99142341 101.66177023 -150.5625 103.375 C-151.2225 103.375 -151.8825 103.375 -152.5625 103.375 C-152.541875 104.179375 -152.52125 104.98375 -152.5 105.8125 C-152.5625 108.375 -152.5625 108.375 -153.5625 109.375 C-154.12624469 114.69299155 -154.40059233 120.03007252 -154.5625 125.375 C-154.58618652 126.05828369 -154.60987305 126.74156738 -154.63427734 127.44555664 C-154.41755732 133.64861439 -150.91312038 139.04546132 -148.05859375 144.3984375 C-146.5625 147.375 -146.5625 147.375 -146.5625 149.375 C-145.9025 149.375 -145.2425 149.375 -144.5625 149.375 C-143.82 150.365 -143.0775 151.355 -142.3125 152.375 C-137.69670322 158.0461674 -130.92148867 161.0212868 -124.5625 164.375 C-123.58191648 162.91761898 -122.60307868 161.45906325 -121.625 160 C-121.07972656 159.18789062 -120.53445312 158.37578125 -119.97265625 157.5390625 C-118.55156121 155.44780816 -118.55156121 155.44780816 -117.5625 153.375 C-116.9025 153.375 -116.2425 153.375 -115.5625 153.375 C-115.5625 152.715 -115.5625 152.055 -115.5625 151.375 C-114.9025 151.375 -114.2425 151.375 -113.5625 151.375 C-113.21058594 150.49328125 -113.21058594 150.49328125 -112.8515625 149.59375 C-108.36493074 141.87130503 -95.95638908 136.63489321 -87.5625 134.375 C-78.9701969 132.38616131 -71.29424 132.34843057 -62.5625 133.375 C-61.386875 133.4575 -60.21125 133.54 -59 133.625 C-50.29240547 135.52483881 -41.35822681 139.52312413 -34.5625 145.375 C-34.5625 146.035 -34.5625 146.695 -34.5625 147.375 C-31.27606941 148.46842924 -29.82229498 148.47837745 -26.55859375 147.1796875 C-25.36600447 146.54838719 -24.18030306 145.90398314 -23 145.25 C-21.58304937 144.50339242 -20.16356229 143.76158769 -18.7421875 143.0234375 C-17.93749023 142.60545898 -17.13279297 142.18748047 -16.30371094 141.75683594 C-10.81169381 138.98832713 -5.21045851 136.44810555 0.375 133.875 C1.60075649 133.30870534 2.82642413 132.74221834 4.05200195 132.17553711 C6.42686706 131.07765706 8.80194192 129.98023059 11.17724609 128.88330078 C15.52069883 126.87387656 19.85664393 124.84891218 24.1875 122.8125 C24.82292725 122.51472656 25.45835449 122.21695313 26.11303711 121.91015625 C28.61092597 120.73420317 31.09696808 119.56066489 33.52148438 118.23876953 C34.22080078 117.86220215 34.92011719 117.48563477 35.640625 117.09765625 C36.58663574 116.56990601 36.58663574 116.56990601 37.55175781 116.03149414 C39.97907232 115.18645935 41.08588436 115.36201924 43.4375 116.375 C44.83789063 117.93798828 44.83789063 117.93798828 46.09375 119.9453125 C46.55910156 120.6775 47.02445313 121.4096875 47.50390625 122.1640625 C47.97699219 122.93492187 48.45007813 123.70578125 48.9375 124.5 C49.41058594 125.24765625 49.88367188 125.9953125 50.37109375 126.765625 C51.74867709 128.95602066 53.09806905 131.16110622 54.4375 133.375 C55.04851562 134.37031738 55.04851562 134.37031738 55.671875 135.38574219 C58.4375 140.01378191 58.4375 140.01378191 58.4375 143.375 C56.90755208 144.109375 55.37760417 144.84375 53.84765625 145.578125 C52.84847168 146.05773682 51.84928711 146.53734863 50.81982422 147.03149414 C48.5753682 148.10882643 46.33090177 149.18613705 44.08642578 150.26342773 C37.35738995 153.49323397 30.62865202 156.72365891 23.90039062 159.95507812 C20.8156311 161.43599683 17.73008306 162.91526417 14.64453125 164.39453125 C10.36699788 166.44603598 6.09437498 168.50740525 1.82421875 170.57421875 C-0.28385111 171.59115216 -2.39192392 172.60807948 -4.5 173.625 C-5.48371582 174.10332275 -6.46743164 174.58164551 -7.48095703 175.07446289 C-8.38313965 175.50879639 -9.28532227 175.94312988 -10.21484375 176.390625 C-11.40581665 176.96731934 -11.40581665 176.96731934 -12.62084961 177.55566406 C-14.5625 178.375 -14.5625 178.375 -16.5625 178.375 C-16.500625 179.6125 -16.43875 180.85 -16.375 182.125 C-16.42969981 193.77606035 -20.87242871 206.51470047 -28.5625 215.375 C-29.2225 215.375 -29.8825 215.375 -30.5625 215.375 C-30.5625 216.035 -30.5625 216.695 -30.5625 217.375 C-31.2225 217.375 -31.8825 217.375 -32.5625 217.375 C-32.5625 218.035 -32.5625 218.695 -32.5625 219.375 C-33.2225 219.375 -33.8825 219.375 -34.5625 219.375 C-34.5625 220.035 -34.5625 220.695 -34.5625 221.375 C-49.00450599 231.7711958 -65.15174499 234.77256522 -82.6640625 232.87109375 C-92.57550884 231.17466021 -100.37830409 227.07445718 -108.5625 221.375 C-110.0475 220.385 -110.0475 220.385 -111.5625 219.375 C-111.5625 218.715 -111.5625 218.055 -111.5625 217.375 C-112.2225 217.375 -112.8825 217.375 -113.5625 217.375 C-114.89453125 215.94140625 -114.89453125 215.94140625 -116.375 213.9375 C-116.9215625 213.20917969 -117.468125 212.48085938 -118.03125 211.73046875 C-119.5625 209.375 -119.5625 209.375 -120.46875 207.05078125 C-121.80660561 203.65424265 -122.99651817 201.19360091 -126.34472656 199.44335938 C-130.65489825 197.66799344 -135.08704911 196.3545723 -139.55419922 195.04003906 C-142.37759614 194.10508487 -144.95269606 192.78950546 -147.5625 191.375 C-147.5625 190.715 -147.5625 190.055 -147.5625 189.375 C-148.078125 189.2925 -148.59375 189.21 -149.125 189.125 C-152.60705732 188.05359775 -155.43450885 186.23976395 -158.5625 184.375 C-158.5625 183.715 -158.5625 183.055 -158.5625 182.375 C-159.15675781 182.09398437 -159.75101563 181.81296875 -160.36328125 181.5234375 C-174.08347724 174.35871703 -182.62082809 157.23798055 -187.71484375 143.19921875 C-193.62870104 123.4954454 -191.2000145 103.13461497 -181.83789062 84.98999023 C-178.4670584 78.83452398 -174.33042268 73.52132924 -169.5625 68.375 C-168.90378906 67.64796875 -168.24507812 66.9209375 -167.56640625 66.171875 C-151.42776244 49.15648394 -128.61925507 40.75931804 -105.5625 39.375 C-103.26322374 39.40191215 -100.97296086 39.49540842 -98.67578125 39.59423828 C-92.15593822 40.08468908 -92.15593822 40.08468908 -86.23046875 37.82421875 C-84.59588931 35.94476074 -84.59588931 35.94476074 -83.47265625 33.90625 C-83.17230469 33.4009375 -82.87195313 32.895625 -82.5625 32.375 C-81.9025 32.375 -81.2425 32.375 -80.5625 32.375 C-80.5625 31.715 -80.5625 31.055 -80.5625 30.375 C-79.9025 30.375 -79.2425 30.375 -78.5625 30.375 C-78.5625 29.715 -78.5625 29.055 -78.5625 28.375 C-75.10096154 25.375 -75.10096154 25.375 -72.5625 25.375 C-72.5625 24.715 -72.5625 24.055 -72.5625 23.375 C-71.11645508 22.23339844 -71.11645508 22.23339844 -69.08203125 20.984375 C-68.33663086 20.52490479 -67.59123047 20.06543457 -66.82324219 19.59204102 C-66.01532227 19.10791748 -65.20740234 18.62379395 -64.375 18.125 C-63.55290039 17.62991943 -62.73080078 17.13483887 -61.88378906 16.62475586 C-50.94294841 10.12529935 -40.0202135 5.28444477 -27.5625 2.375 C-26.80493408 2.19694824 -26.04736816 2.01889648 -25.2668457 1.83544922 C-16.87716936 0.07160745 -8.53159588 -0.02416585 0 0 Z M-85.625 169.375 C-87.32980053 170.85218673 -87.32980053 170.85218673 -88.5625 172.375 C-88.5625 173.035 -88.5625 173.695 -88.5625 174.375 C-89.2225 174.375 -89.8825 174.375 -90.5625 174.375 C-92.44084537 179.30565659 -93.77273768 183.47042958 -91.6640625 188.53125 C-90.68048119 190.51236413 -89.65553516 192.45242922 -88.5625 194.375 C-87.9025 194.375 -87.2425 194.375 -86.5625 194.375 C-86.3975 194.973125 -86.2325 195.57125 -86.0625 196.1875 C-83.7245495 199.59701115 -80.42529654 200.46065022 -76.5625 201.375 C-70.44068777 202.16285062 -65.00571271 201.32886598 -59.5625 198.375 C-55.03264863 194.85178227 -52.723662 190.93419154 -51.5625 185.375 C-51.29882637 179.75347827 -53.01976558 175.70500874 -56.5625 171.375 C-65.10366875 163.68794812 -76.32902987 161.69408731 -85.625 169.375 Z " fill="#FAFBFD" transform="translate(266.5625,77.625)"/>
<path d="M0 0 C1.703125 1.3203125 1.703125 1.3203125 4.015625 3.6953125 C4.015625 4.3553125 4.015625 5.0153125 4.015625 5.6953125 C4.675625 5.6953125 5.335625 5.6953125 6.015625 5.6953125 C7.00651427 7.71042371 7.98281237 9.73271297 8.953125 11.7578125 C9.49839844 12.88316406 10.04367187 14.00851562 10.60546875 15.16796875 C15.32628572 26.97654971 13.12103304 39.79225689 8.33984375 51.203125 C4.80308896 57.85931839 -0.80572691 64.04391503 -7.984375 66.6953125 C-17.25564558 69.51791045 -25.67386935 69.97734483 -35.296875 69.3828125 C-36.52599609 69.32158203 -37.75511719 69.26035156 -39.02148438 69.19726562 C-42.01036363 69.04607718 -44.9973207 68.87857327 -47.984375 68.6953125 C-48.12190879 62.91234407 -47.62888037 57.57734632 -46.671875 51.8828125 C-45.35766918 43.65416311 -44.36106942 35.41891366 -43.484375 27.1328125 C-42.32680076 16.25345937 -40.83607761 5.47721207 -38.984375 -5.3046875 C-27.17385415 -8.54146204 -10.20123847 -6.70711348 0 0 Z M-25.984375 8.6953125 C-27.60453168 16.93892261 -28.78582669 25.21973858 -29.84423828 33.55004883 C-30.11211761 35.65435692 -30.38586334 37.75784741 -30.66015625 39.86132812 C-30.83367903 41.2108931 -31.0068685 42.56050097 -31.1796875 43.91015625 C-31.33453613 45.11792725 -31.48938477 46.32569824 -31.64892578 47.57006836 C-32.05552324 50.83430585 -32.05552324 50.83430585 -31.984375 54.6953125 C-20.24057054 55.54670356 -20.24057054 55.54670356 -9.984375 50.6953125 C-4.0138251 44.6444413 -1.98896913 38.47784219 -1.734375 30.1328125 C-1.9179143 23.45657053 -3.56258525 17.79737759 -7.984375 12.6953125 C-13.87328718 8.87579717 -19.09193004 8.25769695 -25.984375 8.6953125 Z " fill="#F4F8FC" transform="translate(367.984375,346.3046875)"/>
<path d="M0 0 C0.7857843 -0.0033284 1.5715686 -0.0066568 2.38116455 -0.01008606 C4.04902561 -0.01516029 5.71689686 -0.01749423 7.38476562 -0.01733398 C9.92855814 -0.01951023 12.4719099 -0.03763188 15.015625 -0.05664062 C16.63541518 -0.05957655 18.25520743 -0.06156001 19.875 -0.0625 C20.63351257 -0.06968552 21.39202515 -0.07687103 22.17352295 -0.08427429 C27.4854308 -0.06148553 31.3699902 0.33483395 35.203125 4.16796875 C35.77329118 11.35206268 35.77329118 11.35206268 34.08154297 13.77294922 C31.32591986 15.81943095 29.18425727 15.50707914 25.78515625 15.4609375 C24.53154297 15.45126953 23.27792969 15.44160156 21.98632812 15.43164062 C20.67599609 15.40650391 19.36566406 15.38136719 18.015625 15.35546875 C16.68035337 15.34041842 15.34506563 15.32673062 14.00976562 15.31445312 C10.74047924 15.27904569 7.47200407 15.22965765 4.203125 15.16796875 C4.11224609 16.30685547 4.11224609 16.30685547 4.01953125 17.46875 C3.93574219 18.46261719 3.85195313 19.45648438 3.765625 20.48046875 C3.68441406 21.46660156 3.60320312 22.45273437 3.51953125 23.46875 C3.203125 26.16796875 3.203125 26.16796875 2.203125 29.16796875 C2.97503174 29.14702148 3.74693848 29.12607422 4.54223633 29.10449219 C8.03323385 29.02144203 11.5240238 28.96934281 15.015625 28.91796875 C16.23056641 28.88445312 17.44550781 28.8509375 18.69726562 28.81640625 C19.86064453 28.80351562 21.02402344 28.790625 22.22265625 28.77734375 C23.83297729 28.74592285 23.83297729 28.74592285 25.47583008 28.71386719 C28.203125 29.16796875 28.203125 29.16796875 30.04956055 31.00488281 C31.63001046 33.96843545 31.68610847 35.8560821 31.203125 39.16796875 C29.02808479 42.04765439 27.87727902 43.06357927 24.27050781 43.62207031 C23.16030273 43.60112305 22.05009766 43.58017578 20.90625 43.55859375 C19.70097656 43.54570312 18.49570312 43.5328125 17.25390625 43.51953125 C15.99964844 43.48601562 14.74539063 43.4525 13.453125 43.41796875 C12.18339844 43.39992188 10.91367187 43.381875 9.60546875 43.36328125 C6.47059423 43.31614028 3.3372394 43.25034539 0.203125 43.16796875 C0.11224609 44.48861328 0.11224609 44.48861328 0.01953125 45.8359375 C-0.06425781 46.99738281 -0.14804687 48.15882813 -0.234375 49.35546875 C-0.31558594 50.50402344 -0.39679688 51.65257812 -0.48046875 52.8359375 C-0.75091312 55.68395046 -1.17209247 58.38007357 -1.796875 61.16796875 C-1.06049805 61.1522583 -0.32412109 61.13654785 0.43457031 61.12036133 C3.77401029 61.05796403 7.11332755 61.01896257 10.453125 60.98046875 C11.61199219 60.95533203 12.77085937 60.93019531 13.96484375 60.90429688 C15.07988281 60.89462891 16.19492187 60.88496094 17.34375 60.875 C18.37016602 60.85928955 19.39658203 60.8435791 20.45410156 60.82739258 C23.59528063 61.21655286 24.9421585 61.99122068 27.203125 64.16796875 C27.69921875 66.10546875 27.69921875 66.10546875 27.640625 68.16796875 C27.63933594 68.84859375 27.63804687 69.52921875 27.63671875 70.23046875 C27.03935774 72.89975761 26.46271421 73.57302944 24.203125 75.16796875 C21.31539148 75.51173318 18.63178093 75.68052193 15.73828125 75.71484375 C14.90856308 75.73516663 14.07884491 75.7554895 13.22398376 75.77642822 C11.46985995 75.81662284 9.71556318 75.84979323 7.96118164 75.87646484 C5.27889865 75.91776437 2.59778119 75.98040326 -0.08398438 76.046875 C-1.78903616 76.08328629 -3.49411441 76.11848291 -5.19921875 76.15234375 C-6.00036606 76.16996765 -6.80151337 76.18759155 -7.62693787 76.20574951 C-11.20390972 76.25536004 -14.35739859 76.13851185 -17.796875 75.16796875 C-17.41671915 65.78205183 -16.51227872 56.65837639 -15.02636719 47.38793945 C-13.68693711 38.8631932 -12.7672322 30.30251266 -11.88720703 21.71948242 C-9.60513928 0.01394298 -9.60513928 0.01394298 0 0 Z " fill="#F4F8FC" transform="translate(282.796875,339.83203125)"/>
<path d="M0 0 C5.32020022 -0.07429915 10.64009669 -0.12867247 15.96069336 -0.16479492 C17.76966617 -0.17985755 19.5786026 -0.20031177 21.38745117 -0.22631836 C23.99146515 -0.2628132 26.5949952 -0.27975157 29.19921875 -0.29296875 C30.40731453 -0.31619453 30.40731453 -0.31619453 31.63981628 -0.33988953 C36.23710846 -0.34125946 39.28324046 -0.02354895 43 3 C43.59375 5.15625 43.59375 5.15625 43.5 7.5 C43.4896875 8.2734375 43.479375 9.046875 43.46875 9.84375 C42.87430003 12.57821988 42.24941308 13.33736482 40 15 C37.08911133 15.34057617 37.08911133 15.34057617 33.58203125 15.29296875 C32.32841797 15.28330078 31.07480469 15.27363281 29.78320312 15.26367188 C28.47287109 15.23853516 27.16253906 15.21339844 25.8125 15.1875 C24.47722837 15.17244967 23.14194063 15.15876187 21.80664062 15.14648438 C18.53735424 15.11107694 15.26887907 15.0616889 12 15 C12.04125 16.010625 12.0825 17.02125 12.125 18.0625 C11.99426157 22.18076052 11.26749214 25.11830533 10 29 C10.77190674 28.97905273 11.54381348 28.95810547 12.33911133 28.93652344 C15.83010885 28.85347328 19.3208988 28.80137406 22.8125 28.75 C24.02744141 28.71648437 25.24238281 28.68296875 26.49414062 28.6484375 C27.65751953 28.63554687 28.82089844 28.62265625 30.01953125 28.609375 C31.62985229 28.5779541 31.62985229 28.5779541 33.27270508 28.54589844 C36 29 36 29 37.84643555 30.83691406 C39.42688546 33.8004667 39.48298347 35.68811335 39 39 C36.82495979 41.87968564 35.67415402 42.89561052 32.06738281 43.45410156 C30.95717773 43.4331543 29.84697266 43.41220703 28.703125 43.390625 C27.49785156 43.37773437 26.29257813 43.36484375 25.05078125 43.3515625 C23.79652344 43.31804687 22.54226562 43.28453125 21.25 43.25 C19.98027344 43.23195313 18.71054688 43.21390625 17.40234375 43.1953125 C14.26746923 43.14817153 11.1341144 43.08237664 8 43 C8.04125 44.299375 8.0825 45.59875 8.125 46.9375 C8.14055052 51.83591302 7.2492718 56.28176811 6 61 C7.15000488 60.9685791 7.15000488 60.9685791 8.32324219 60.93652344 C11.7986946 60.85334842 15.27393763 60.80133425 18.75 60.75 C19.9565625 60.71648437 21.163125 60.68296875 22.40625 60.6484375 C23.56640625 60.63554687 24.7265625 60.62265625 25.921875 60.609375 C26.99018555 60.58842773 28.05849609 60.56748047 29.15917969 60.54589844 C32.7010941 61.11206901 33.84846015 62.18174999 36 65 C36.5808904 68.48534241 36.52997024 70.19980635 34.56738281 73.16308594 C30.67221499 75.95000518 27.09396923 75.49803067 22.421875 75.390625 C21.4953009 75.38496521 20.56872681 75.37930542 19.61407471 75.37347412 C16.65885438 75.35110921 13.70485295 75.30091262 10.75 75.25 C8.7448092 75.22993515 6.73959936 75.21168435 4.734375 75.1953125 C-0.17755194 75.151244 -5.08856942 75.08221555 -10 75 C-9.93533539 74.42128143 -9.87067078 73.84256287 -9.80404663 73.24630737 C-9.30762829 68.79302958 -8.82052564 64.33908065 -8.3515625 59.8828125 C-7.1588838 48.72562837 -5.90319508 37.61329828 -4.05957031 26.54321289 C-2.99232337 20.12203815 -2.17948695 13.68803222 -1.4296875 7.22265625 C-1.09576104 4.7182078 -0.63967452 2.43162136 0 0 Z " fill="#F3F8FC" transform="translate(69,340)"/>
<path d="M0 0 C4.29 0 8.58 0 13 0 C14.63812815 4.09532038 15.74298226 7.72432947 16.6875 12 C16.95949219 13.19625 17.23148437 14.3925 17.51171875 15.625 C17.98611768 18.90404538 18.13776109 20.90485845 17 24 C15.2578125 25.6171875 15.2578125 25.6171875 13.125 26.875 C12.42632812 27.30554688 11.72765625 27.73609375 11.0078125 28.1796875 C9 29 9 29 6 28 C0.13950814 27.4165773 0.13950814 27.4165773 -5 29.9375 C-7.69779881 34.06850442 -7.90289148 37.19904818 -7 42 C-5.78475509 45.2071208 -5.78475509 45.2071208 -3 47 C0.12459061 47.6421177 2.87305247 47.62193432 6 47 C8.81738461 45.04950296 9.74960079 43.71542632 10.875 40.5 C12.45636731 36.98585042 14.68116485 35.8287459 18 34 C18.99 34 19.98 34 21 34 C22.76392775 38.03086938 23.80602984 42.0974892 24.7265625 46.3828125 C24.87910492 47.07889618 25.03164734 47.77497986 25.18881226 48.49215698 C25.50849505 49.95574295 25.82605525 51.41979399 26.14160156 52.88427734 C26.62520421 55.1259466 27.11678604 57.36575898 27.609375 59.60546875 C27.91974533 61.03114678 28.22965712 62.45692474 28.5390625 63.8828125 C28.68590485 64.55160431 28.83274719 65.22039612 28.98403931 65.90945435 C29.57661441 68.67663501 30 71.15937713 30 74 C27.32356043 74.89214652 25.74615622 75.13540211 23 75.125 C21.9790625 75.12886719 21.9790625 75.12886719 20.9375 75.1328125 C19 75 19 75 16 74 C15.01 69.05 14.02 64.1 13 59 C4.42 59.33 -4.16 59.66 -13 60 C-13.969375 62.289375 -14.93875 64.57875 -15.9375 66.9375 C-18.99030695 73.46895037 -18.99030695 73.46895037 -22.2578125 75.1875 C-24.63841202 75.44573452 -26.63683602 75.3681741 -29 75 C-30.175625 74.855625 -31.35125 74.71125 -32.5625 74.5625 C-33.7690625 74.2840625 -33.7690625 74.2840625 -35 74 C-34.38384627 69.49865468 -32.57782267 65.85220636 -30.5 61.875 C-27.22040936 55.46765161 -24.06842332 49.01119428 -21 42.5 C-20.60232422 41.65679199 -20.20464844 40.81358398 -19.79492188 39.94482422 C-18.86184686 37.96389115 -17.93070144 35.98204935 -17 34 C-16.34 34 -15.68 34 -15 34 C-15 32.68 -15 31.36 -15 30 C-14.34 30 -13.68 30 -13 30 C-13 28.68 -13 27.36 -13 26 C-12.34 26 -11.68 26 -11 26 C-11 24.68 -11 23.36 -11 22 C-10.34 22 -9.68 22 -9 22 C-8.91878906 21.35675781 -8.83757812 20.71351563 -8.75390625 20.05078125 C-7.70711027 15.814783 -5.83722188 12.10178015 -3.9375 8.1875 C-3.56044922 7.39923828 -3.18339844 6.61097656 -2.79492188 5.79882812 C-1.86829839 3.86347527 -0.93482533 1.93140451 0 0 Z " fill="#F2F7FC" transform="translate(410,341)"/>
<path d="M0 0 C1.0209375 1.299375 1.0209375 1.299375 2.0625 2.625 C4.89616251 6.09852178 7.67531092 6.07834495 12 7 C16.06091689 15.12183378 12.17944216 28.94376242 11 37.75 C10.80659415 39.2368886 10.6138814 40.72386753 10.421875 42.2109375 C9.95588108 45.80836548 9.48059432 49.40448982 9 53 C5.03942467 53.08680713 2.42397723 53.10706291 -1 51 C-1 50.34 -1 49.68 -1 49 C-2.65 49 -4.3 49 -6 49 C-6 49.66 -6 50.32 -6 51 C-12.12414012 54.11067435 -17.0762092 56.31364092 -24.03515625 54.45703125 C-31.46414461 51.94367257 -35.40877552 48.14598521 -38.99609375 41.21875 C-42.78635393 32.84183256 -41.75940019 21.60183392 -39 13 C-38.36054268 11.65340557 -37.70059464 10.3158227 -37 9 C-36.34 9 -35.68 9 -35 9 C-34.75765625 8.24074219 -34.5153125 7.48148437 -34.265625 6.69921875 C-31.79751787 1.43544706 -26.11578602 -1.03026474 -21 -3.375 C-13.23681909 -4.99232936 -6.80488967 -4.30146481 0 0 Z M-26 18 C-28.2034716 22.31880433 -28.49754754 26.19037376 -28 31 C-26.70673654 34.67313487 -25.48175859 38.03187622 -22.140625 40.21484375 C-19.78961277 41.07716758 -17.99851208 41.2671131 -15.5 41.25 C-14.7471875 41.25515625 -13.994375 41.2603125 -13.21875 41.265625 C-10.7703279 40.97250404 -9.12695946 40.21816769 -7 39 C-7 38.34 -7 37.68 -7 37 C-6.34 37 -5.68 37 -5 37 C-0.86520628 31.44387093 -0.53380142 26.93259937 -0.46875 20.0859375 C-1.11412051 16.3370941 -2.37663887 14.70890551 -5 12 C-8.4985905 9.66760633 -10.39527005 9.34102822 -14.51171875 9.421875 C-19.48966513 10.57844653 -22.78544223 14.19909585 -26 18 Z " fill="#F1F7FC" transform="translate(150,362)"/>
<path d="M0 0 C4.62 0 9.24 0 14 0 C17.13681639 9.29474693 20.16495329 18.60791788 23 28 C26.8594582 21.96033598 30.38637547 15.79418871 33.8125 9.5 C34.31458984 8.5821875 34.81667969 7.664375 35.33398438 6.71875 C36.55812006 4.48033046 37.77936265 2.24032915 39 0 C43.95 0 48.9 0 54 0 C52.56081452 4.31755645 51.69331855 6.78743442 49.375 10.375 C46.76673488 14.57665551 44.50241335 18.89534287 42.328125 23.33203125 C38.50548532 31.05193005 34.51961073 38.67561741 30.46289062 46.2746582 C29.36645242 48.32851137 28.27283188 50.38384525 27.1796875 52.43945312 C23.16387383 59.9840793 19.10723968 67.50461149 15 75 C10.38 75 5.76 75 1 75 C1.73010879 71.34945605 2.14957863 69.32737666 3.7421875 66.22265625 C4.08636719 65.54396484 4.43054688 64.86527344 4.78515625 64.16601562 C5.14480469 63.47185547 5.50445312 62.77769531 5.875 62.0625 C6.22691406 61.37220703 6.57882813 60.68191406 6.94140625 59.97070312 C7.28816406 59.29072266 7.63492188 58.61074219 7.9921875 57.91015625 C8.33024414 57.24612793 8.66830078 56.58209961 9.01660156 55.89794922 C9.91166478 54.1704861 10.84822135 52.46468232 11.7890625 50.76171875 C13.0766524 47.82518308 13.26597399 46.7913673 12.5 43.75 C12.29246094 42.90179688 12.08492187 42.05359375 11.87109375 41.1796875 C11.43990234 39.60574219 11.43990234 39.60574219 11 38 C10.61578963 36.54429611 10.23168332 35.08856476 9.84765625 33.6328125 C8.04689972 26.92968965 6.18342661 20.35894157 3.68481445 13.87939453 C2.0448951 9.37882442 1.10983481 4.65073634 0 0 Z " fill="#F2F7FC" transform="translate(211,360)"/>
<path d="M0 0 C3.06987691 1.73172544 5.74337092 3.28367875 7.75 6.25 C7.75 11.19018294 5.8159173 14.4626904 2.75 18.25 C1.76 18.25 0.77 18.25 -0.25 18.25 C-0.8275 17.610625 -1.405 16.97125 -2 16.3125 C-4.95966498 13.59947377 -7.32507941 13.55191697 -11.25 13.25 C-9.71604208 17.2382906 -7.22216096 19.06751776 -3.875 21.625 C1.30101411 25.74413165 4.6332246 28.8996738 6.75 35.25 C7.45793692 42.09339026 6.04949314 46.80326057 1.75 52.25 C-3.40714373 56.35765934 -8.74811845 57.76602235 -15.25 57.25 C-18.67252307 56.10749594 -21.9617486 54.7320288 -25.25 53.25 C-25.25 52.59 -25.25 51.93 -25.25 51.25 C-25.91 51.25 -26.57 51.25 -27.25 51.25 C-27.25 50.59 -27.25 49.93 -27.25 49.25 C-27.91 49.25 -28.57 49.25 -29.25 49.25 C-29.25 48.59 -29.25 47.93 -29.25 47.25 C-29.91 47.25 -30.57 47.25 -31.25 47.25 C-30.65312566 43.90750371 -29.51396123 41.78563658 -27.25 39.25 C-26.59 39.25 -25.93 39.25 -25.25 39.25 C-24.92 38.26 -24.59 37.27 -24.25 36.25 C-22.93 36.58 -21.61 36.91 -20.25 37.25 C-20.25 37.91 -20.25 38.57 -20.25 39.25 C-19.59 39.25 -18.93 39.25 -18.25 39.25 C-18.25 39.91 -18.25 40.57 -18.25 41.25 C-13.19990405 42.18786082 -13.19990405 42.18786082 -8.25 41.25 C-8.25 39.6 -8.25 37.95 -8.25 36.25 C-8.91 36.25 -9.57 36.25 -10.25 36.25 C-10.25 35.59 -10.25 34.93 -10.25 34.25 C-10.91 34.25 -11.57 34.25 -12.25 34.25 C-12.25 33.59 -12.25 32.93 -12.25 32.25 C-13.9 31.59 -15.55 30.93 -17.25 30.25 C-17.25 29.59 -17.25 28.93 -17.25 28.25 C-17.91 28.25 -18.57 28.25 -19.25 28.25 C-19.25 27.59 -19.25 26.93 -19.25 26.25 C-19.91 26.25 -20.57 26.25 -21.25 26.25 C-24.56039365 20.6932678 -25.98282433 16.74072981 -25.25 10.25 C-23.19659359 4.63015088 -20.13393312 1.80888277 -14.9375 -1 C-9.4521031 -2.53080844 -5.1004888 -2.41252171 0 0 Z " fill="#F2F6FB" transform="translate(198.25,359.75)"/>
<path d="M0 0 C0 0.66 0 1.32 0 2 C0.66 2 1.32 2 2 2 C2.75 3.6875 2.75 3.6875 3 6 C1.0625 8.75 1.0625 8.75 -1 11 C-3.375 10.6875 -3.375 10.6875 -6 10 C-8 7 -8 7 -7.75 3.875 C-7.37875 2.451875 -7.37875 2.451875 -7 1 C-4.53721199 -0.231394 -2.7204945 -0.07159196 0 0 Z " fill="#D7E6FD" transform="translate(415,373)"/>
<path d="M0 0 C0.77214844 0.07476562 1.54429687 0.14953125 2.33984375 0.2265625 C4.25 0.4375 4.25 0.4375 7 1 C7.495 1.99 7.495 1.99 8 3 C6.15535156 2.87431641 6.15535156 2.87431641 4.2734375 2.74609375 C2.64064758 2.6428714 1.00783375 2.54002677 -0.625 2.4375 C-1.43324219 2.38142578 -2.24148437 2.32535156 -3.07421875 2.26757812 C-7.59228832 1.99208608 -11.5269986 2.17737905 -16 3 C-18.5546875 2.87890625 -18.5546875 2.87890625 -20.875 2.5625 C-21.65617188 2.46066406 -22.43734375 2.35882813 -23.2421875 2.25390625 C-23.82226562 2.17011719 -24.40234375 2.08632812 -25 2 C-25 1.67 -25 1.34 -25 1 C-16.38328193 -0.8785998 -8.73961485 -1.04735731 0 0 Z " fill="#BDDDF8" transform="translate(204,211)"/>
<path d="M0 0 C0.33 1.32 0.66 2.64 1 4 C6.2145927 3.88177165 11.428994 3.75752459 16.64331055 3.62768555 C18.41735937 3.58436066 20.19144923 3.54268381 21.96557617 3.50268555 C24.51493705 3.4449238 27.0640918 3.38124638 29.61328125 3.31640625 C30.40712723 3.29969376 31.20097321 3.28298126 32.01887512 3.26576233 C35.24683077 3.17882282 37.91751099 3.02749634 41 2 C41.99 2.66 42.98 3.32 44 4 C41.71368506 5.14315747 40.45652594 5.12112732 37.91748047 5.11352539 C36.65639969 5.11341209 36.65639969 5.11341209 35.36984253 5.11329651 C34.00727829 5.10555458 34.00727829 5.10555458 32.6171875 5.09765625 C31.68778351 5.0962413 30.75837952 5.09482635 29.80081177 5.09336853 C26.82550876 5.08776053 23.85028036 5.07520668 20.875 5.0625 C18.86067817 5.05748603 16.84635516 5.05292295 14.83203125 5.04882812 C9.88799198 5.0377885 4.94400865 5.02051849 0 5 C0 3.35 0 1.7 0 0 Z " fill="#BED5FD" transform="translate(59,410)"/>
<path d="M0 0 C0.8125 1.6875 0.8125 1.6875 1 4 C-3.51839385 9.64799231 -8.82370794 12.94592931 -15.9375 13.75 C-17.29058281 13.84939173 -18.64466473 13.93853355 -20 14 C-17.39058505 12.26039003 -14.86723849 10.88338981 -12.0625 9.5 C-11.20785156 9.0771875 -10.35320312 8.654375 -9.47265625 8.21875 C-8.65667969 7.8165625 -7.84070313 7.414375 -7 7 C-5.66621713 6.33423317 -4.33271433 5.66790324 -3 5 C-3 4.34 -3 3.68 -3 3 C-2.34 3 -1.68 3 -1 3 C-0.67 2.01 -0.34 1.02 0 0 Z " fill="#BEDEFB" transform="translate(380,232)"/>
<path d="M0 0 C0.99 0.33 1.98 0.66 3 1 C1.35 4.3 -0.3 7.6 -2 11 C-6.71949266 10.05610147 -10.54771478 8.73563661 -15 7 C-15 6.67 -15 6.34 -15 6 C-11.65747276 5.92572162 -9.1964086 5.93453047 -6 7 C-3.88850355 7.07642709 -3.88850355 7.07642709 -2 6 C-0.6954344 3.00384054 -0.6954344 3.00384054 0 0 Z " fill="#D3E5FB" transform="translate(197,146)"/>
<path d="M0 0 C2.58396679 -0.08112454 5.16537568 -0.14054748 7.75 -0.1875 C8.47960937 -0.21263672 9.20921875 -0.23777344 9.9609375 -0.26367188 C13.18382403 -0.30762033 15.58672981 -0.20890581 18.48828125 1.2578125 C20.30537856 3.35193498 20.51441704 4.31912549 20.4375 7.0625 C20.293125 8.361875 20.14875 9.66125 20 11 C19.01 11.66 18.02 12.32 17 13 C17 9.7 17 6.4 17 3 C13.31393395 2.07848349 10.0272887 1.70191021 6.25 1.4375 C5.07953125 1.35371094 3.9090625 1.26992188 2.703125 1.18359375 C1.81109375 1.12300781 0.9190625 1.06242187 0 1 C0 0.67 0 0.34 0 0 Z " fill="#D8EDFC" transform="translate(290,401)"/>
<path d="M0 0 C0.33 0 0.66 0 1 0 C1.48609892 5.34708809 1.48609892 5.34708809 -0.62207031 8.17871094 C-3.70389641 10.53912395 -5.44596798 10.46328362 -9.296875 10.390625 C-10.50214844 10.37773437 -11.70742188 10.36484375 -12.94921875 10.3515625 C-14.20347656 10.31804687 -15.45773437 10.28453125 -16.75 10.25 C-18.01972656 10.23195313 -19.28945313 10.21390625 -20.59765625 10.1953125 C-23.73253077 10.14817153 -26.8658856 10.08237664 -30 10 C-30 9.67 -30 9.34 -30 9 C-20.76 8.67 -11.52 8.34 -2 8 C-1.67 6.35 -1.34 4.7 -1 3 C-0.67 2.01 -0.34 1.02 0 0 Z " fill="#BAD4F8" transform="translate(313,373)"/>
<path d="M0 0 C0.33 0.66 0.66 1.32 1 2 C-3.43368107 6.68703428 -3.43368107 6.68703428 -6.375 8.3125 C-10.32235246 10.85008372 -13.03381128 14.4012523 -16 18 C-16.66 17.67 -17.32 17.34 -18 17 C-6.71655329 3.35827664 -6.71655329 3.35827664 0 0 Z " fill="#BED9FC" transform="translate(111,134)"/>
<path d="M0 0 C0.556875 0.226875 1.11375 0.45375 1.6875 0.6875 C-4.29304054 4.18555201 -8.17462898 6.05044259 -15.3125 5.6875 C-18.75 4.6875 -18.75 4.6875 -21.3125 3.6875 C-18.21054352 2.75619667 -15.5994308 2.66345081 -12.375 2.8125 C-7.62777456 2.88918059 -4.16145646 -0.56235898 0 0 Z " fill="#C2E1FE" transform="translate(198.3125,411.3125)"/>
<path d="M0 0 C0 0.66 0 1.32 0 2 C-1.98 2 -3.96 2 -6 2 C-5.33131686 5.11332248 -5.33131686 5.11332248 -2.9375 6.1875 C-2.298125 6.455625 -1.65875 6.72375 -1 7 C-1 7.66 -1 8.32 -1 9 C-2.98 9 -4.96 9 -7 9 C-8.33157895 3.55263158 -8.33157895 3.55263158 -6.875 1.125 C-4.46277487 -0.32233508 -2.7648665 -0.22417836 0 0 Z " fill="#D2E3FD" transform="translate(415,373)"/>
<path d="M0 0 C0.33 0 0.66 0 1 0 C0.88573491 2.41760876 0.75900339 4.83347218 0.625 7.25 C0.5940625 7.93191406 0.563125 8.61382812 0.53125 9.31640625 C0.31740626 12.98739038 -0.01077055 15.86251616 -2 19 C-2.05394705 16.39555652 -2.09364469 13.79223002 -2.125 11.1875 C-2.14175781 10.44951172 -2.15851563 9.71152344 -2.17578125 8.95117188 C-2.21074628 5.08753574 -2.19397555 3.29096332 0 0 Z " fill="#DAE7FD" transform="translate(337,382)"/>
<path d="M0 0 C8.58 0 17.16 0 26 0 C26.66 1.32 27.32 2.64 28 4 C26.86691406 3.52433594 26.86691406 3.52433594 25.7109375 3.0390625 C20.68212016 1.63099364 15.82448599 1.53601634 10.625 1.375 C9.60277344 1.33632813 8.58054687 1.29765625 7.52734375 1.2578125 C5.01840403 1.16402036 2.50946236 1.07832121 0 1 C0 0.67 0 0.34 0 0 Z " fill="#CBE2FC" transform="translate(285,369)"/>
<path d="M0 0 C1.41764994 0.93601246 2.83407568 1.8738792 4.25 2.8125 C5.03890625 3.33457031 5.8278125 3.85664062 6.640625 4.39453125 C11.22489337 7.5139589 11.22489337 7.5139589 13 9 C13 9.66 13 10.32 13 11 C12.01 11 11.02 11 10 11 C10 10.34 10 9.68 10 9 C9.195625 8.731875 8.39125 8.46375 7.5625 8.1875 C6.716875 7.795625 5.87125 7.40375 5 7 C4.67 6.01 4.34 5.02 4 4 C1.98491642 3.26676204 1.98491642 3.26676204 0 3 C0 2.01 0 1.02 0 0 Z " fill="#D0E1FE" transform="translate(332,97)"/>
<path d="M0 0 C0.33 0 0.66 0 1 0 C0.97679687 1.27617187 0.95359375 2.55234375 0.9296875 3.8671875 C0.91093171 5.5364525 0.89273131 7.2057238 0.875 8.875 C0.85824219 9.71675781 0.84148437 10.55851562 0.82421875 11.42578125 C0.81777344 12.23144531 0.81132812 13.03710938 0.8046875 13.8671875 C0.79421387 14.61081543 0.78374023 15.35444336 0.77294922 16.12060547 C0.8334403 18.24490235 0.8334403 18.24490235 3 20 C1.35 20 -0.3 20 -2 20 C-1.85879984 17.41633755 -1.71221667 14.83317115 -1.5625 12.25 C-1.52318359 11.52039063 -1.48386719 10.79078125 -1.44335938 10.0390625 C-1.23852902 6.5727027 -0.9147998 3.34666974 0 0 Z " fill="#B4CDF7" transform="translate(267,395)"/>
<path d="M0 0 C-1.28716647 1.00578589 -2.57988658 2.00446798 -3.875 3 C-4.59429687 3.556875 -5.31359375 4.11375 -6.0546875 4.6875 C-8 6 -8 6 -10 6 C-10 6.66 -10 7.32 -10 8 C-10.66 8 -11.32 8 -12 8 C-12 8.66 -12 9.32 -12 10 C-12.66 9.67 -13.32 9.34 -14 9 C-13.34 7.68 -12.68 6.36 -12 5 C-11.01 5 -10.02 5 -9 5 C-9 4.01 -9 3.02 -9 2 C-8.01 2 -7.02 2 -6 2 C-6 1.34 -6 0.68 -6 0 C-3.50907189 -1.24546405 -2.58919267 -0.7767578 0 0 Z " fill="#C6DAFA" transform="translate(136,158)"/>
<path d="M0 0 C0.33 0 0.66 0 1 0 C1 1.98 1 3.96 1 6 C4.63 6.33 8.26 6.66 12 7 C12 7.33 12 7.66 12 8 C7.38 8 2.76 8 -2 8 C-1 3 -1 3 0 0 Z " fill="#C4DBFB" transform="translate(214,427)"/>
<path d="M0 0 C0.33 0 0.66 0 1 0 C1.50354867 2.43681587 2.00296756 4.87435439 2.5 7.3125 C2.64308594 8.00279297 2.78617187 8.69308594 2.93359375 9.40429688 C3.52625044 12.32524773 4 15.01108122 4 18 C3.01 17.67 2.02 17.34 1 17 C-0.22517308 11.33357449 -0.09228867 5.76291482 0 0 Z " fill="#C1DBFC" transform="translate(436,397)"/>
<path d="M0 0 C1.875 0.625 1.875 0.625 4 2 C6.23795392 6.58247708 6.15810667 10.07804667 5 15 C4.01 15.495 4.01 15.495 3 16 C2.95101562 15.18015625 2.90203125 14.3603125 2.8515625 13.515625 C2.77679688 12.43796875 2.70203125 11.3603125 2.625 10.25 C2.55539063 9.18265625 2.48578125 8.1153125 2.4140625 7.015625 C2.0271777 4.19793568 1.44313834 2.4169634 0 0 Z " fill="#CADDF8" transform="translate(146,375)"/>
<path d="M0 0 C-6.93 3.465 -6.93 3.465 -14 7 C-14 6.01 -14 5.02 -14 4 C-13.34 4.33 -12.68 4.66 -12 5 C-11.79375 4.38125 -11.5875 3.7625 -11.375 3.125 C-8.55295615 -1.23634049 -4.66492913 -1.16623228 0 0 Z " fill="#CDECFD" transform="translate(295,235)"/>
<path d="M0 0 C0 0.66 0 1.32 0 2 C-1.65365406 3.02137457 -3.32376502 4.01612294 -5 5 C-6.05333488 5.90323466 -7.0949097 6.82034351 -8.125 7.75 C-9.548125 8.86375 -9.548125 8.86375 -11 10 C-11.99 9.67 -12.98 9.34 -14 9 C-3.89320388 0 -3.89320388 0 0 0 Z " fill="#D1E3FC" transform="translate(167,218)"/>
<path d="M0 0 C0.33 0 0.66 0 1 0 C1.08333357 4.8333472 0.95261487 9.23692563 0 14 C-2.875 14.125 -2.875 14.125 -6 14 C-6.66 13.34 -7.32 12.68 -8 12 C-5.03 12.495 -5.03 12.495 -2 13 C-2.04125 12.154375 -2.0825 11.30875 -2.125 10.4375 C-1.98464972 6.57786731 -1.17219836 3.66311987 0 0 Z " fill="#CBE0FD" transform="translate(159,401)"/>
<path d="M0 0 C0.66 0 1.32 0 2 0 C1.34 5.94 0.68 11.88 0 18 C-0.33 18 -0.66 18 -1 18 C-1.02684312 15.18743719 -1.04676188 12.37512759 -1.0625 9.5625 C-1.07087891 8.76005859 -1.07925781 7.95761719 -1.08789062 7.13085938 C-1.0965143 5.08704779 -1.0522815 3.04316098 -1 1 C-0.67 0.67 -0.34 0.34 0 0 Z " fill="#C8DDF8" transform="translate(340,355)"/>
<path d="M0 0 C1.134375 0.020625 2.26875 0.04125 3.4375 0.0625 C-2.51355687 3.39509185 -8.88439497 4.35954158 -15.5625 5.0625 C-14.15705569 3.0421738 -13.04173008 2.15776863 -10.6171875 1.67578125 C-8.60064521 1.45533487 -6.58162323 1.25789902 -4.5625 1.0625 C-3.5625 0.0625 -3.5625 0.0625 0 0 Z " fill="#D1F2FD" transform="translate(373.5625,273.9375)"/>
<path d="M0 0 C0.33 0.66 0.66 1.32 1 2 C0.27554688 2.04898438 -0.44890625 2.09796875 -1.1953125 2.1484375 C-6.41458867 2.55206152 -11.09813658 3.01275807 -16 5 C-16 4.01 -16 3.02 -16 2 C-15.05125 1.690625 -14.1025 1.38125 -13.125 1.0625 C-7.74107646 -0.768034 -5.75154166 -1.00423743 0 0 Z " fill="#D0E1FA" transform="translate(199,241)"/>
<path d="M0 0 C-3.01031744 0.93423645 -3.86650268 1.04449911 -7 0 C-9.56634861 -0.22718496 -12.11678107 -0.41608184 -14.6875 -0.5625 C-15.38939453 -0.60568359 -16.09128906 -0.64886719 -16.81445312 -0.69335938 C-18.54275206 -0.7991736 -20.2713511 -0.90006581 -22 -1 C-22 -1.33 -22 -1.66 -22 -2 C-19.75067773 -2.1954625 -17.50049858 -2.38108226 -15.25 -2.5625 C-13.99703125 -2.66691406 -12.7440625 -2.77132812 -11.453125 -2.87890625 C-6.84707402 -3.04043066 -4.01500954 -2.15089797 0 0 Z " fill="#A5CDEF" transform="translate(181,151)"/>
<path d="M0 0 C0.66 0 1.32 0 2 0 C1.31238981 3.65564909 -0.25449545 6.51867272 -2.0625 9.75 C-2.61035156 10.73484375 -3.15820312 11.7196875 -3.72265625 12.734375 C-4.14417969 13.48203125 -4.56570312 14.2296875 -5 15 C-6.125 11.25 -6.125 11.25 -5 9 C-4.34 9 -3.68 9 -3 9 C-2.67 7.02 -2.34 5.04 -2 3 C-1.34 3 -0.68 3 0 3 C0 2.01 0 1.02 0 0 Z " fill="#C7E0FA" transform="translate(258,369)"/>
<path d="M0 0 C1.32 0 2.64 0 4 0 C2.125 3.875 2.125 3.875 1 5 C0.71520878 7.77558423 0.55156981 10.55127845 0.37890625 13.3359375 C0 16 0 16 -2 19 C-1.85870713 16.58299013 -1.71213513 14.16649571 -1.5625 11.75 C-1.52318359 11.06808594 -1.48386719 10.38617188 -1.44335938 9.68359375 C-1.23333528 6.35551959 -0.98065998 3.19744598 0 0 Z " fill="#D0E1FD" transform="translate(329,341)"/>
<path d="M0 0 C3 3.625 3 3.625 3 7 C3.66 7 4.32 7 5 7 C4.67 11.62 4.34 16.24 4 21 C3.67 21 3.34 21 3 21 C2.86722656 19.90300781 2.73445313 18.80601562 2.59765625 17.67578125 C2.41937015 16.22134199 2.2409792 14.76691558 2.0625 13.3125 C1.97548828 12.59126953 1.88847656 11.87003906 1.79882812 11.12695312 C1.33686195 7.37989416 0.80832321 3.69207089 0 0 Z " fill="#C4D8F7" transform="translate(385,193)"/>
<path d="M0 0 C0.33 0 0.66 0 1 0 C3.37288136 13.94067797 3.37288136 13.94067797 0 19 C-0.78441153 12.43507888 -1.10914408 6.53162622 0 0 Z " fill="#B4D0FA" transform="translate(379,365)"/>
<path d="M0 0 C0 0.99 0 1.98 0 3 C-0.598125 3.268125 -1.19625 3.53625 -1.8125 3.8125 C-4.05569277 4.86047309 -4.05569277 4.86047309 -5.4375 6.6875 C-5.953125 7.120625 -6.46875 7.55375 -7 8 C-9.6875 7.6875 -9.6875 7.6875 -12 7 C-10.53092999 4.06185997 -8.40552194 3.6713774 -5.4375 2.375 C-4.42558594 1.92898437 -3.41367187 1.48296875 -2.37109375 1.0234375 C-1.58863281 0.68570313 -0.80617188 0.34796875 0 0 Z " fill="#CCDBF9" transform="translate(260,215)"/>
<path d="M0 0 C3.10414702 -0.02903577 6.20825909 -0.0468107 9.3125 -0.0625 C10.19357422 -0.07087891 11.07464844 -0.07925781 11.98242188 -0.08789062 C12.82998047 -0.09111328 13.67753906 -0.09433594 14.55078125 -0.09765625 C15.72120972 -0.10551147 15.72120972 -0.10551147 16.9152832 -0.11352539 C19 0 19 0 22 1 C22 1.66 22 2.32 22 3 C21.18273437 2.84660156 20.36546875 2.69320312 19.5234375 2.53515625 C15.55375228 1.9322218 11.63053967 1.65842036 7.625 1.4375 C6.88894531 1.39431641 6.15289062 1.35113281 5.39453125 1.30664062 C3.59651932 1.20156201 1.79828042 1.10037907 0 1 C0 0.67 0 0.34 0 0 Z " fill="#A9C2EE" transform="translate(342,171)"/>
<path d="M0 0 C0.6875 1.6875 0.6875 1.6875 1 4 C-0.4375 6.75 -0.4375 6.75 -2 9 C-5.3 8.67 -8.6 8.34 -12 8 C-12 7.67 -12 7.34 -12 7 C-11.38511719 6.91363281 -10.77023437 6.82726562 -10.13671875 6.73828125 C-4.79246389 5.92508804 -4.79246389 5.92508804 -0.9375 2.375 C-0.628125 1.59125 -0.31875 0.8075 0 0 Z " fill="#B9C9F8" transform="translate(421,382)"/>
<path d="M0 0 C1.1446875 0.1546875 1.1446875 0.1546875 2.3125 0.3125 C0.9925 0.6425 -0.3275 0.9725 -1.6875 1.3125 C-1.790625 2.034375 -1.89375 2.75625 -2 3.5 C-2.75543947 6.59043421 -3.84281315 8.72993841 -5.6875 11.3125 C-6.3475 11.3125 -7.0075 11.3125 -7.6875 11.3125 C-4.42292601 0.51429372 -4.42292601 0.51429372 0 0 Z " fill="#DAEDFD" transform="translate(252.6875,359.6875)"/>
<path d="M0 0 C3.61938095 2.64116988 5.98706523 4.97413046 8 9 C8 9.66 8 10.32 8 11 C7.34 11 6.68 11 6 11 C5.67 10.01 5.34 9.02 5 8 C4.34 7.731875 3.68 7.46375 3 7.1875 C2.34 6.795625 1.68 6.40375 1 6 C0.25 2.875 0.25 2.875 0 0 Z " fill="#BDD4FC" transform="translate(196,383)"/>
<path d="M0 0 C0.66 0 1.32 0 2 0 C0.35821735 4.77609498 -2.26546702 8.79382904 -5 13 C-5.33 11.68 -5.66 10.36 -6 9 C-5.34 9 -4.68 9 -4 9 C-4 7.68 -4 6.36 -4 5 C-3.34 5 -2.68 5 -2 5 C-1.34 3.35 -0.68 1.7 0 0 Z " fill="#D4E4FD" transform="translate(414,239)"/>
<path d="M0 0 C0.66 0.33 1.32 0.66 2 1 C2 1.99 2 2.98 2 4 C0.71086513 4.67154933 -0.58140204 5.33708859 -1.875 6 C-2.59429687 6.37125 -3.31359375 6.7425 -4.0546875 7.125 C-6 8 -6 8 -8 8 C-8 7.34 -8 6.68 -8 6 C-7.34 6 -6.68 6 -6 6 C-5.67 5.01 -5.34 4.02 -5 3 C-4.01 3.33 -3.02 3.66 -2 4 C-2 3.34 -2 2.68 -2 2 C-1.34 2 -0.68 2 0 2 C0 1.34 0 0.68 0 0 Z " fill="#CCE4FA" transform="translate(323,217)"/>
<path d="M0 0 C2.29160319 -0.02692484 4.58329546 -0.04636124 6.875 -0.0625 C8.15117187 -0.07410156 9.42734375 -0.08570313 10.7421875 -0.09765625 C14 0 14 0 16 1 C15.67 1.99 15.34 2.98 15 4 C14.195625 3.690625 13.39125 3.38125 12.5625 3.0625 C8.37750913 1.81434483 4.33693899 1.3662304 0 1 C0 0.67 0 0.34 0 0 Z " fill="#C8E5FC" transform="translate(342,354)"/>
<path d="M0 0 C0 0.66 0 1.32 0 2 C-1.5778125 2.2165625 -1.5778125 2.2165625 -3.1875 2.4375 C-6.15460549 2.87526966 -9.06794366 3.37804866 -12 4 C-8.66437635 0.13769893 -4.98576775 -1.84658065 0 0 Z " fill="#C6E2FA" transform="translate(310,194)"/>
<path d="M0 0 C1.485 0.99 1.485 0.99 3 2 C3 2.66 3 3.32 3 4 C3.66 4 4.32 4 5 4 C5.99 5.98 6.98 7.96 8 10 C6.68 9.67 5.36 9.34 4 9 C3.896875 8.360625 3.79375 7.72125 3.6875 7.0625 C3.460625 6.381875 3.23375 5.70125 3 5 C2.01 4.67 1.02 4.34 0 4 C0 2.68 0 1.36 0 0 Z " fill="#CFE1F9" transform="translate(354,117)"/>
<path d="M0 0 C0.66 0 1.32 0 2 0 C2 1.32 2 2.64 2 4 C1.01 4 0.02 4 -1 4 C-0.67 5.98 -0.34 7.96 0 10 C-0.66 10 -1.32 10 -2 10 C-2 9.34 -2 8.68 -2 8 C-2.66 8 -3.32 8 -4 8 C-3.40312566 4.65750371 -2.26396123 2.53563658 0 0 Z " fill="#C5DEFB" transform="translate(171,399)"/>
<path d="M0 0 C0.33 0 0.66 0 1 0 C1.46450943 6.50313209 0.32575612 10.4174808 -3 16 C-3.33 16 -3.66 16 -4 16 C-4.37485997 11.62663369 -3.24092779 9.67512158 -1 6 C-0.28598768 2.80604974 -0.28598768 2.80604974 0 0 Z " fill="#CBDEFE" transform="translate(204,395)"/>
<path d="M0 0 C0.99 0.33 1.98 0.66 3 1 C2.67 1.99 2.34 2.98 2 4 C1.34 4 0.68 4 0 4 C-0.144375 4.598125 -0.28875 5.19625 -0.4375 5.8125 C-0.8872439 7.56150404 -1.42892341 9.28677023 -2 11 C-2.66 11 -3.32 11 -4 11 C-3.71872579 9.51882199 -3.42466268 8.04006751 -3.125 6.5625 C-2.96257812 5.73878906 -2.80015625 4.91507813 -2.6328125 4.06640625 C-2.42398438 3.38449219 -2.21515625 2.70257813 -2 2 C-1.34 1.67 -0.68 1.34 0 1 C0 0.67 0 0.34 0 0 Z " fill="#B9DFF9" transform="translate(118,170)"/>
<path d="M0 0 C0.66 0.33 1.32 0.66 2 1 C-3 7.57142857 -3 7.57142857 -8 9 C-8 8.34 -8 7.68 -8 7 C-7.34 7 -6.68 7 -6 7 C-6 6.34 -6 5.68 -6 5 C-5.34 5 -4.68 5 -4 5 C-4 4.34 -4 3.68 -4 3 C-2 1.375 -2 1.375 0 0 Z " fill="#CCDEFD" transform="translate(192,103)"/>
<path d="M0 0 C-1.62249941 0.83819158 -3.24808497 1.6704116 -4.875 2.5 C-6.23238281 3.19609375 -6.23238281 3.19609375 -7.6171875 3.90625 C-10 5 -10 5 -12 5 C-12 4.34 -12 3.68 -12 3 C-7.85026227 0.19612315 -4.92021218 -1.5269624 0 0 Z " fill="#DAE7FC" transform="translate(314,226)"/>
<path d="M0 0 C3.8515625 0.796875 3.8515625 0.796875 5.1875 2.625 C6.24433752 5.71421737 6.62661323 8.76398137 7 12 C3.95950199 8.35140239 2.03481238 4.2555467 0 0 Z " fill="#C5DBF9" transform="translate(330,141)"/>
<path d="M0 0 C0.99 0.33 1.98 0.66 3 1 C3 1.99 3 2.98 3 4 C2.21625 3.938125 1.4325 3.87625 0.625 3.8125 C-0.674375 3.9053125 -0.674375 3.9053125 -2 4 C-2.99 5.485 -2.99 5.485 -4 7 C-4.66 7 -5.32 7 -6 7 C-6 6.01 -6 5.02 -6 4 C-3.1875 1.75 -3.1875 1.75 0 0 Z " fill="#C2D9FC" transform="translate(428,375)"/>
<path d="M0 0 C3.63 0 7.26 0 11 0 C11 0.33 11 0.66 11 1 C8.03 1 5.06 1 2 1 C1.67 2.32 1.34 3.64 1 5 C0.34 5.99 -0.32 6.98 -1 8 C-0.67 5.36 -0.34 2.72 0 0 Z " fill="#E4F5FF" transform="translate(69,341)"/>
<path d="M0 0 C0.33 1.32 0.66 2.64 1 4 C-0.32 4.33 -1.64 4.66 -3 5 C-3 5.66 -3 6.32 -3 7 C-4.65 7 -6.3 7 -8 7 C-6.62141149 4.24282298 -4.62533685 3.53678254 -2 2 C-1.34 1.34 -0.68 0.68 0 0 Z " fill="#D2E5FB" transform="translate(211,271)"/>
<path d="M0 0 C-0.7109375 1.921875 -0.7109375 1.921875 -2 4 C-4.1640625 4.828125 -4.1640625 4.828125 -6.625 5.25 C-7.85089844 5.47429687 -7.85089844 5.47429687 -9.1015625 5.703125 C-9.72804688 5.80109375 -10.35453125 5.8990625 -11 6 C-8.05970059 2.8666063 -4.47443154 0 0 0 Z " fill="#C9DAFC" transform="translate(276,208)"/>
<path d="M0 0 C1.65 0 3.3 0 5 0 C1.53258866 2.95749791 -1.86873527 5.07848152 -6 7 C-6 6.01 -6 5.02 -6 4 C-4.35 3.67 -2.7 3.34 -1 3 C-0.67 2.01 -0.34 1.02 0 0 Z " fill="#C0E7FD" transform="translate(225,118)"/>
<path d="M0 0 C0.66 0 1.32 0 2 0 C1.42415568 2.38564077 0.77772405 4.66682784 0 7 C-1.65 7 -3.3 7 -5 7 C-4.67 6.01 -4.34 5.02 -4 4 C-3.01 4 -2.02 4 -1 4 C-0.67 2.68 -0.34 1.36 0 0 Z " fill="#D2E5FC" transform="translate(390,408)"/>
<path d="M0 0 C0.66 0 1.32 0 2 0 C2.29296875 6.0546875 2.29296875 6.0546875 2 8 C1.01 8.66 0.02 9.32 -1 10 C-1.125 2.25 -1.125 2.25 0 0 Z " fill="#D2E5F9" transform="translate(308,404)"/>
<path d="M0 0 C1.125 3.75 1.125 3.75 0 6 C-0.06950541 7.54023996 -0.08452357 9.08334988 -0.0625 10.625 C-0.05347656 11.44226563 -0.04445313 12.25953125 -0.03515625 13.1015625 C-0.02355469 13.72804688 -0.01195313 14.35453125 0 15 C-0.66 14.67 -1.32 14.34 -2 14 C-2.05410687 12.22950311 -2.09284119 10.45853151 -2.125 8.6875 C-2.14820312 7.70136719 -2.17140625 6.71523438 -2.1953125 5.69921875 C-2 3 -2 3 0 0 Z " fill="#D2E0FD" transform="translate(123,380)"/>
<path d="M0 0 C1.258125 0.12375 2.51625 0.2475 3.8125 0.375 C4.87404297 0.47941406 4.87404297 0.47941406 5.95703125 0.5859375 C8 1 8 1 11 3 C11 3.66 11 4.32 11 5 C6.87248551 4.39301257 3.6678852 2.96189209 0 1 C0 0.67 0 0.34 0 0 Z " fill="#C6DAFA" transform="translate(365,175)"/>
<path d="M0 0 C1.485 0.99 1.485 0.99 3 2 C3.3125 5 3.3125 5 3 8 C2.34 8.66 1.68 9.32 1 10 C0.67 6.7 0.34 3.4 0 0 Z " fill="#B5D7F9" transform="translate(102,403)"/>
<path d="M0 0 C-2.64 1.98 -5.28 3.96 -8 6 C-8 2 -8 2 -6.25 0.1875 C-4 -1 -4 -1 0 0 Z " fill="#C4EAFC" transform="translate(133,373)"/>
<path d="M0 0 C0.66 0 1.32 0 2 0 C2.28571429 7.42857143 2.28571429 7.42857143 0 11 C-0.84098656 6.98195309 -1.05404945 3.98196457 0 0 Z " fill="#CAE1FB" transform="translate(79,355)"/>
<path d="M0 0 C0.556875 0.226875 1.11375 0.45375 1.6875 0.6875 C-5.0625 4.6875 -5.0625 4.6875 -7.3125 4.6875 C-7.3125 4.0275 -7.3125 3.3675 -7.3125 2.6875 C-3.15982824 -0.42700382 -3.15982824 -0.42700382 0 0 Z " fill="#CEE9FC" transform="translate(198.3125,411.3125)"/>
<path d="M0 0 C1 2 1 2 0.3125 4.9375 C-1.06192878 8.14450048 -2.06205603 9.23723362 -5 11 C-3.77472971 6.94718288 -2.30119506 3.55639236 0 0 Z " fill="#AAD8F6" transform="translate(380,402)"/>
<path d="M0 0 C2.64752004 2.57784846 4.94432065 4.91648098 7 8 C4.03 7.505 4.03 7.505 1 7 C0.67 4.69 0.34 2.38 0 0 Z " fill="#D2EFFC" transform="translate(186,373)"/>
<path d="M0 0 C0.33 0 0.66 0 1 0 C1.25 2.75 1.25 2.75 1 6 C-1 8.375 -1 8.375 -3 10 C-3.99 9.67 -4.98 9.34 -6 9 C-4.68 8.67 -3.36 8.34 -2 8 C-1.855625 7.236875 -1.71125 6.47375 -1.5625 5.6875 C-1 3 -1 3 0 0 Z " fill="#A9C1F2" transform="translate(313,373)"/>
<path d="M0 0 C1.98 0 3.96 0 6 0 C6 0.99 6 1.98 6 3 C3.69 3.33 1.38 3.66 -1 4 C-0.67 2.68 -0.34 1.36 0 0 Z " fill="#FAFEFA" transform="translate(409,375)"/>
<path d="M0 0 C3.96 0 7.92 0 12 0 C12.33 1.32 12.66 2.64 13 4 C12.43796875 3.68289063 11.8759375 3.36578125 11.296875 3.0390625 C8.84803683 1.93125475 6.91612145 1.61024601 4.25 1.375 C3.45078125 1.30023438 2.6515625 1.22546875 1.828125 1.1484375 C1.22484375 1.09945313 0.6215625 1.05046875 0 1 C0 0.67 0 0.34 0 0 Z " fill="#D5E6FE" transform="translate(133,371)"/>
<path d="M0 0 C2.97 1.65 5.94 3.3 9 5 C5 6 5 6 2.25 4.75 C1.5075 4.1725 0.765 3.595 0 3 C0 2.01 0 1.02 0 0 Z " fill="#CFE0F9" transform="translate(127,234)"/>
<path d="M0 0 C0.66 0.33 1.32 0.66 2 1 C-0.31 3.64 -2.62 6.28 -5 9 C-5.66 8.67 -6.32 8.34 -7 8 C-4.69 5.36 -2.38 2.72 0 0 Z " fill="#CEDEFF" transform="translate(100,143)"/>
<path d="M0 0 C4.38889325 0.66498383 7.9811485 2.18757677 12 4 C8.64474971 5.11841676 8.02910146 4.91538821 4.875 3.6875 C4.17117188 3.42324219 3.46734375 3.15898437 2.7421875 2.88671875 C1 2 1 2 0 0 Z " fill="#CADCFB" transform="translate(374,144)"/>
<path d="M0 0 C0.66 0.33 1.32 0.66 2 1 C0.35 2.65 -1.3 4.3 -3 6 C-4.32 5.34 -5.64 4.68 -7 4 C-1.7265625 0.77734375 -1.7265625 0.77734375 0 0 Z " fill="#DAE9FD" transform="translate(119,129)"/>
<path d="M0 0 C0.66 0 1.32 0 2 0 C3.62950412 4.12168689 4.26264601 6.70700357 3 11 C0.87953208 7.46588679 0.46800711 4.05606165 0 0 Z " fill="#C4DBF9" transform="translate(423,400)"/>
<path d="M0 0 C1.32 0 2.64 0 4 0 C2.25 5.75 2.25 5.75 0 8 C0 5.36 0 2.72 0 0 Z " fill="#C8DBF8" transform="translate(261,360)"/>
<path d="M0 0 C1.65 0 3.3 0 5 0 C0.375 4.875 0.375 4.875 -3 6 C-2.67 4.68 -2.34 3.36 -2 2 C-1.34 2 -0.68 2 0 2 C0 1.34 0 0.68 0 0 Z " fill="#DAECFB" transform="translate(411,342)"/>
<path d="M0 0 C2.72426311 2.35277269 3.8141763 4.62496331 5 8 C4.34 8 3.68 8 3 8 C3 7.34 3 6.68 3 6 C2.01 6.33 1.02 6.66 0 7 C0 4.69 0 2.38 0 0 Z " fill="#DDE9FC" transform="translate(362,128)"/>
<path d="M0 0 C0.95465783 2.16967689 1.14401212 3.56328793 0.3984375 5.82421875 C-0.35870385 7.5684743 -1.17609198 9.28627131 -2 11 C-2.66 11 -3.32 11 -4 11 C-2.95902388 7.13351728 -1.96301592 3.50538557 0 0 Z " fill="#B0D1F6" transform="translate(225,405)"/>
<path d="M0 0 C1.32 0.33 2.64 0.66 4 1 C4.33 2.98 4.66 4.96 5 7 C3.29115995 5.37660195 1.62553283 3.70680947 0 2 C0 1.34 0 0.68 0 0 Z " fill="#C4D7F4" transform="translate(113,405)"/>
<path d="M0 0 C0.6875 1.625 0.6875 1.625 1 4 C-0.4375 7.25 -0.4375 7.25 -2 10 C-2.66 8.68 -3.32 7.36 -4 6 C-3.34 5.01 -2.68 4.02 -2 3 C-1.34 3 -0.68 3 0 3 C0 2.01 0 1.02 0 0 Z " fill="#C2D9F9" transform="translate(377,390)"/>
<path d="M0 0 C0.33 1.32 0.66 2.64 1 4 C-0.4375 6.25 -0.4375 6.25 -2 8 C-2.99 7.67 -3.98 7.34 -5 7 C-3.35 4.69 -1.7 2.38 0 0 Z " fill="#C5E2FB" transform="translate(363,389)"/>
<path d="M0 0 C3.37462715 0.54723683 5.08235 1.0549 8 3 C7.67 3.66 7.34 4.32 7 5 C6.01 5 5.02 5 4 5 C1.8125 2.5 1.8125 2.5 0 0 Z " fill="#C9DFFA" transform="translate(194,373)"/>
<path d="M0 0 C2.64 0 5.28 0 8 0 C8 0.66 8 1.32 8 2 C9.32 2.33 10.64 2.66 12 3 C7.53160785 3.21278058 4.17737474 2.59138085 0 1 C0 0.67 0 0.34 0 0 Z " fill="#C4D8F9" transform="translate(175,307)"/>
<path d="M0 0 C2.64 0.33 5.28 0.66 8 1 C8.33 2.65 8.66 4.3 9 6 C6.03 4.35 3.06 2.7 0 1 C0 0.67 0 0.34 0 0 Z " fill="#B9DCFD" transform="translate(201,243)"/>
<path d="M0 0 C0.33 1.32 0.66 2.64 1 4 C-0.65 5.32 -2.3 6.64 -4 8 C-3.67 6.35 -3.34 4.7 -3 3 C-2.34 3 -1.68 3 -1 3 C-0.67 2.01 -0.34 1.02 0 0 Z " fill="#D7E5F8" transform="translate(380,232)"/>
<path d="M0 0 C0.62109375 1.796875 0.62109375 1.796875 1 4 C-0.9375 7.25 -0.9375 7.25 -3 10 C-3.33 9.34 -3.66 8.68 -4 8 C-3.22265625 6.0546875 -3.22265625 6.0546875 -2.0625 3.875 C-1.49208984 2.78832031 -1.49208984 2.78832031 -0.91015625 1.6796875 C-0.60980469 1.12539062 -0.30945313 0.57109375 0 0 Z " fill="#C4E5FB" transform="translate(87,159)"/>
<path d="M0 0 C1.32 0.33 2.64 0.66 4 1 C3.01 2.485 3.01 2.485 2 4 C1.34 4 0.68 4 0 4 C0 4.66 0 5.32 0 6 C-0.66 6 -1.32 6 -2 6 C-2 5.01 -2 4.02 -2 3 C-1.34 3 -0.68 3 0 3 C0 2.01 0 1.02 0 0 Z " fill="#CDEFFC" transform="translate(236,289)"/>
<path d="M0 0 C1.9375 0.75 1.9375 0.75 4 2 C4.75 4.125 4.75 4.125 5 6 C1.83884224 4.63016497 1.0072908 4.0109362 -1 1 C-0.67 0.67 -0.34 0.34 0 0 Z " fill="#B1E3FB" transform="translate(98,250)"/>
<path d="M0 0 C2.72426311 2.35277269 3.8141763 4.62496331 5 8 C3.68 7.34 2.36 6.68 1 6 C1.33 5.34 1.66 4.68 2 4 C1.01 3.67 0.02 3.34 -1 3 C-0.67 2.01 -0.34 1.02 0 0 Z " fill="#AEE6FF" transform="translate(316,205)"/>
<path d="M0 0 C0.66 0.33 1.32 0.66 2 1 C1.34 4.96 0.68 8.92 0 13 C-0.33 13 -0.66 13 -1 13 C-1.02696365 11.20841511 -1.04637917 9.41671527 -1.0625 7.625 C-1.07410156 6.62726563 -1.08570312 5.62953125 -1.09765625 4.6015625 C-1 2 -1 2 0 0 Z " fill="#D1E2F9" transform="translate(112,183)"/>
<path d="M0 0 C6.875 3.75 6.875 3.75 8 6 C5.69 5.34 3.38 4.68 1 4 C0.67 2.68 0.34 1.36 0 0 Z " fill="#C2D1F9" transform="translate(391,152)"/>
</svg>
