<?xml version="1.0" encoding="UTF-8"?>
<svg version="1.1" xmlns="http://www.w3.org/2000/svg" width="500" height="500">
<path d="M0 0 C1.07048271 -0.00657338 1.07048271 -0.00657338 2.16259134 -0.01327956 C4.54877583 -0.02661009 6.93492343 -0.03283367 9.32113647 -0.03897095 C11.034868 -0.04687704 12.74859789 -0.0551463 14.46232605 -0.06375122 C20.09021423 -0.08993325 25.71810966 -0.10528445 31.34603882 -0.11953735 C33.28994119 -0.12490037 35.23384353 -0.13027789 37.17774582 -0.13566971 C45.27415893 -0.15730118 53.37057009 -0.17603107 61.46700478 -0.1872921 C73.02963015 -0.20348412 84.59191697 -0.23654292 96.15441477 -0.29369295 C104.30421419 -0.33258416 112.45392384 -0.35194788 120.60381353 -0.35721266 C125.45978103 -0.36084266 130.31538716 -0.37260891 135.1712532 -0.4053154 C139.75311397 -0.43573191 144.33440117 -0.44159036 148.91634178 -0.42993164 C150.58222167 -0.42971362 152.2481308 -0.43778865 153.91391563 -0.45558548 C176.76114283 -0.6860386 197.27113913 6.00242841 214.43197632 21.52890015 C215.60760132 22.82827515 215.60760132 22.82827515 216.80697632 24.15390015 C217.52885132 24.91831421 218.25072632 25.68272827 218.99447632 26.4703064 C223.07970199 30.86323336 226.26717526 34.67969618 228.80697632 40.15390015 C229.22978882 40.9531189 229.65260132 41.75233765 230.08822632 42.57577515 C241.18816324 63.7795008 241.68733785 85.62545386 234.80697632 108.15390015 C227.30912941 128.06920663 211.95848292 143.89750771 192.81478882 152.9078064 C188.64770321 154.63417043 184.41790511 156.06727223 180.10775757 157.3921814 C177.86884137 157.94235638 177.86884137 157.94235638 176.80697632 159.15390015 C177.62939819 159.38464233 178.45182007 159.61538452 179.29916382 159.8531189 C199.06753744 165.62840588 217.53963153 177.6399098 227.84603882 196.00546265 C228.90227989 198.0292528 229.86862749 200.07288459 230.80697632 202.15390015 C231.14728882 202.90413452 231.48760132 203.6543689 231.83822632 204.42733765 C238.33887189 219.64475797 240.49547964 235.83993396 237.11947632 252.02890015 C236.9401355 252.89950073 236.76079468 253.77010132 236.57601929 254.66708374 C234.29045725 265.20573783 230.35913159 275.46893187 223.80697632 284.15390015 C223.14697632 284.15390015 222.48697632 284.15390015 221.80697632 284.15390015 C221.47697632 285.47390015 221.14697632 286.79390015 220.80697632 288.15390015 C220.14697632 288.15390015 219.48697632 288.15390015 218.80697632 288.15390015 C218.64197632 288.85515015 218.47697632 289.55640015 218.30697632 290.27890015 C216.42281974 293.89020025 214.0833662 295.43938752 210.77963257 297.72421265 C208.81902862 299.05304689 208.81902862 299.05304689 207.44369507 300.59140015 C194.82984639 312.63326046 174.23555542 317.30478306 157.33041382 317.11483765 C154.13109537 316.90867631 150.98528541 316.57039612 147.80697632 316.15390015 C146.83502319 316.05206421 145.86307007 315.95022827 144.86166382 315.8453064 C133.65604193 314.39604597 123.47602272 309.87361773 113.80697632 304.15390015 C113.80697632 303.49390015 113.80697632 302.83390015 113.80697632 302.15390015 C112.72416382 301.81358765 112.72416382 301.81358765 111.61947632 301.46640015 C108.22129329 299.8805814 106.35466633 297.89266691 103.80697632 295.15390015 C102.66228882 294.07108765 102.66228882 294.07108765 101.49447632 292.96640015 C95.25897592 286.44087648 90.47440459 279.9120903 86.54525757 271.7984314 C86.00125305 270.6922345 86.00125305 270.6922345 85.44625854 269.56369019 C84.5615256 267.76286113 83.68354774 265.95871598 82.80697632 264.15390015 C82.81221313 265.30382446 82.81744995 266.45374878 82.82284546 267.63851929 C82.8862737 283.33141235 82.86684172 299.02399275 82.81491852 314.71687317 C82.80947626 316.38680449 82.80427491 318.0567366 82.79927826 319.72666931 C82.76498485 331.17058076 82.71162792 342.61413096 82.62146473 354.05774975 C82.58339809 358.91501834 82.55165521 363.77211861 82.53625488 368.6295166 C82.5210768 373.28366229 82.48658121 377.93730787 82.43873024 382.59122849 C82.42412852 384.31173767 82.41594488 386.0323168 82.4150753 387.75288773 C82.39801621 404.73626739 79.82640899 420.02390384 71.80697632 435.15390015 C71.14697632 435.15390015 70.48697632 435.15390015 69.80697632 435.15390015 C69.41832397 436.24831421 69.41832397 436.24831421 69.02182007 437.36483765 C67.76885775 440.24141351 66.32302202 442.33381714 64.36947632 444.77890015 C63.77264038 445.53429077 63.17580444 446.2896814 62.56088257 447.06796265 C61.04026648 448.87644592 59.58536177 450.59843209 57.80697632 452.15390015 C57.14697632 452.15390015 56.48697632 452.15390015 55.80697632 452.15390015 C55.47697632 453.14390015 55.14697632 454.13390015 54.80697632 455.15390015 C50.46411918 459.15390015 50.46411918 459.15390015 46.80697632 459.15390015 C46.80697632 459.81390015 46.80697632 460.47390015 46.80697632 461.15390015 C44.56171686 462.33056018 42.3115349 463.49530754 40.05697632 464.65390015 C39.42275757 464.98776733 38.78853882 465.32163452 38.13510132 465.6656189 C34.68686639 467.42565548 32.75857563 468.15390015 28.80697632 468.15390015 C28.80697632 468.81390015 28.80697632 469.47390015 28.80697632 470.15390015 C5.21019433 476.50227297 -16.87947751 475.01294403 -38.87271118 463.54452515 C-44.03103234 460.45300607 -49.1985478 456.68681635 -53.19302368 452.15390015 C-53.19302368 451.49390015 -53.19302368 450.83390015 -53.19302368 450.15390015 C-53.79630493 449.8806189 -54.39958618 449.60733765 -55.02114868 449.32577515 C-65.79943987 443.51015041 -71.80304183 426.94305841 -75.22817993 415.82577515 C-80.589512 395.42232517 -78.42147882 372.33127837 -67.88052368 353.71640015 C-67.32364868 352.87077515 -66.76677368 352.02515015 -66.19302368 351.15390015 C-65.53302368 351.15390015 -64.87302368 351.15390015 -64.19302368 351.15390015 C-64.00739868 350.49390015 -63.82177368 349.83390015 -63.63052368 349.15390015 C-61.58493594 344.88484746 -58.62117725 341.41226309 -55.19302368 338.15390015 C-54.53302368 338.15390015 -53.87302368 338.15390015 -53.19302368 338.15390015 C-52.85271118 337.28765015 -52.85271118 337.28765015 -52.50552368 336.40390015 C-50.84454146 333.55650206 -48.87777807 332.03322822 -46.19302368 330.15390015 C-45.53302368 330.15390015 -44.87302368 330.15390015 -44.19302368 330.15390015 C-44.19302368 329.49390015 -44.19302368 328.83390015 -44.19302368 328.15390015 C-25.85259815 318.00496398 -25.85259815 318.00496398 -17.19302368 316.15390015 C-20.40517153 314.01246825 -23.38393428 312.92247646 -27.00552368 311.59140015 C-32.75241072 309.38850926 -37.95454727 306.73481453 -43.13052368 303.40390015 C-44.04378418 302.82080078 -44.04378418 302.82080078 -44.97549438 302.22592163 C-46.42370272 301.26276116 -47.81524314 300.21536435 -49.19302368 299.15390015 C-49.19302368 298.49390015 -49.19302368 297.83390015 -49.19302368 297.15390015 C-50.51302368 296.49390015 -51.83302368 295.83390015 -53.19302368 295.15390015 C-53.19302368 294.49390015 -53.19302368 293.83390015 -53.19302368 293.15390015 C-53.76150024 292.93862671 -54.32997681 292.72335327 -54.91567993 292.5015564 C-65.19135242 286.42075535 -72.00378801 270.14721022 -75.19302368 259.15390015 C-78.4121722 245.54981487 -78.77366721 229.72372535 -75.19302368 216.15390015 C-74.92489868 215.09815796 -74.65677368 214.04241577 -74.38052368 212.9546814 C-71.49018081 202.58557635 -66.69455726 194.77470518 -59.94302368 186.52890015 C-59.2882605 185.72827148 -59.2882605 185.72827148 -58.62026978 184.91146851 C-57.52544551 183.6171401 -56.36406445 182.37970181 -55.19302368 181.15390015 C-54.53302368 181.15390015 -53.87302368 181.15390015 -53.19302368 181.15390015 C-52.86302368 180.16390015 -52.53302368 179.17390015 -52.19302368 178.15390015 C-46.7279074 173.15390015 -46.7279074 173.15390015 -44.19302368 173.15390015 C-44.19302368 172.49390015 -44.19302368 171.83390015 -44.19302368 171.15390015 C-26.76303682 161.50876821 -26.76303682 161.50876821 -18.88052368 159.59140015 C-17.17031341 159.30019658 -17.17031341 159.30019658 -16.19302368 158.15390015 C-17.30419556 157.79038452 -18.41536743 157.4268689 -19.56021118 157.05233765 C-28.0526667 154.20782831 -35.74747115 151.24289916 -43.19302368 146.15390015 C-44.30677368 145.45265015 -45.42052368 144.75140015 -46.56802368 144.02890015 C-49.07403448 142.23889243 -51.17660792 140.48053372 -53.19302368 138.15390015 C-53.19302368 137.49390015 -53.19302368 136.83390015 -53.19302368 136.15390015 C-53.76150024 135.93862671 -54.32997681 135.72335327 -54.91567993 135.5015564 C-66.48354844 128.65607675 -72.35123847 111.41684177 -75.72305298 99.13046265 C-78.65335817 86.80643623 -78.78055004 71.29938045 -75.19302368 59.15390015 C-74.89009399 58.06335327 -74.58716431 56.9728064 -74.27505493 55.84921265 C-72.72351266 50.5109561 -71.23075178 45.84274167 -68.19302368 41.15390015 C-67.61552368 40.24640015 -67.03802368 39.33890015 -66.44302368 38.40390015 C-64.56931136 35.69742679 -62.66770756 33.03681199 -60.69302368 30.40390015 C-60.12583618 29.6459314 -59.55864868 28.88796265 -58.97427368 28.10702515 C-57.1371539 26.09263942 -55.5918806 25.35332861 -53.19302368 24.15390015 C-52.86302368 23.16390015 -52.53302368 22.17390015 -52.19302368 21.15390015 C-51.53302368 21.15390015 -50.87302368 21.15390015 -50.19302368 21.15390015 C-49.94552368 20.51452515 -49.69802368 19.87515015 -49.44302368 19.21640015 C-48.19302368 17.15390015 -48.19302368 17.15390015 -46.06802368 16.40390015 C-45.13989868 16.28015015 -45.13989868 16.28015015 -44.19302368 16.15390015 C-44.19302368 15.49390015 -44.19302368 14.83390015 -44.19302368 14.15390015 C-42.25161743 12.7515564 -42.25161743 12.7515564 -39.63052368 11.21640015 C-38.78360962 10.71237671 -37.93669556 10.20835327 -37.06411743 9.6890564 C-31.40914986 6.66537986 -25.76908063 4.63283952 -19.56802368 3.02890015 C-18.29700806 2.69632202 -17.02599243 2.3637439 -15.71646118 2.02108765 C-10.32968184 0.69529495 -5.57253916 0.02433584 0 0 Z M81.80697632 160.15390015 C81.80697632 177.31390015 81.80697632 194.47390015 81.80697632 212.15390015 C84.0834656 209.1185811 85.59438205 206.7495686 87.18197632 203.40390015 C89.16868787 199.32178157 91.37376933 195.5243771 93.88900757 191.74765015 C94.97334613 190.17158938 94.97334613 190.17158938 94.80697632 188.15390015 C95.46697632 188.15390015 96.12697632 188.15390015 96.80697632 188.15390015 C96.80697632 187.16390015 96.80697632 186.17390015 96.80697632 185.15390015 C97.79697632 184.82390015 98.78697632 184.49390015 99.80697632 184.15390015 C100.9359096 183.02496686 102.06147906 181.89247839 103.17025757 180.7437439 C109.33915399 174.75152231 116.15552526 170.02105952 123.80697632 166.15390015 C124.52111694 165.77233765 125.23525757 165.39077515 125.97103882 164.99765015 C129.56181431 163.11484652 132.72878436 161.66367414 136.80697632 161.15390015 C136.80697632 160.49390015 136.80697632 159.83390015 136.80697632 159.15390015 C129.29559038 159.12861025 121.78421535 159.11105874 114.27279663 159.09896851 C111.71582631 159.09392998 109.15885889 159.08709907 106.60189819 159.07846069 C102.93327115 159.06637413 99.26468209 159.06066713 95.59603882 159.0562439 C94.44705109 159.05108261 93.29806335 159.04592133 92.11425781 159.04060364 C90.52283463 159.04049034 90.52283463 159.04049034 88.89926147 159.04037476 C87.96216339 159.03815414 87.02506531 159.03593353 86.05957031 159.03364563 C83.77110329 159.00562971 83.77110329 159.00562971 81.80697632 160.15390015 Z " fill="#895FFE" transform="translate(170.19302368164063,13.846099853515625)"/>
<path d="M0 0 C1.07048271 -0.00657338 1.07048271 -0.00657338 2.16259134 -0.01327956 C4.54877583 -0.02661009 6.93492343 -0.03283367 9.32113647 -0.03897095 C11.034868 -0.04687704 12.74859789 -0.0551463 14.46232605 -0.06375122 C20.09021423 -0.08993325 25.71810966 -0.10528445 31.34603882 -0.11953735 C33.28994119 -0.12490037 35.23384353 -0.13027789 37.17774582 -0.13566971 C45.27415893 -0.15730118 53.37057009 -0.17603107 61.46700478 -0.1872921 C73.02963015 -0.20348412 84.59191697 -0.23654292 96.15441477 -0.29369295 C104.30421419 -0.33258416 112.45392384 -0.35194788 120.60381353 -0.35721266 C125.45978103 -0.36084266 130.31538716 -0.37260891 135.1712532 -0.4053154 C139.75311397 -0.43573191 144.33440117 -0.44159036 148.91634178 -0.42993164 C150.58222167 -0.42971362 152.2481308 -0.43778865 153.91391563 -0.45558548 C176.76114283 -0.6860386 197.27113913 6.00242841 214.43197632 21.52890015 C215.60760132 22.82827515 215.60760132 22.82827515 216.80697632 24.15390015 C217.52885132 24.91831421 218.25072632 25.68272827 218.99447632 26.4703064 C223.07970199 30.86323336 226.26717526 34.67969618 228.80697632 40.15390015 C229.22978882 40.9531189 229.65260132 41.75233765 230.08822632 42.57577515 C241.18816324 63.7795008 241.68733785 85.62545386 234.80697632 108.15390015 C227.56207391 127.39735143 212.22095744 144.28012299 193.42956638 152.80606842 C179.84593899 157.86003358 165.47411134 158.74757608 151.12753296 158.67147827 C149.36244129 158.67691961 147.59735418 158.68405337 145.83227539 158.69271851 C141.10741414 158.71070677 136.38290839 158.70399008 131.65804219 158.69120216 C126.67939363 158.68095674 121.70077216 158.6904984 116.72212219 158.69674683 C108.37494527 158.70398532 100.02791082 158.69453111 91.68075562 158.67538452 C82.06133891 158.65357305 72.44226087 158.6607135 62.82285219 158.68269014 C54.51910049 158.70089331 46.21545015 158.70338 37.91168493 158.69293547 C32.97127479 158.68673391 28.03102348 158.68577319 23.09062386 158.69908142 C18.45031243 158.71071316 13.81043483 158.70248182 9.17016983 158.67950439 C7.47759785 158.67425831 5.78498875 158.67565988 4.09243202 158.68455505 C-5.01826321 158.72798982 -12.82365445 158.22009652 -21.516366 155.09615326 C-23.98718374 154.22636116 -26.300104 153.69057369 -28.88052368 153.27890015 C-34.31997526 152.15901306 -38.61586489 149.17934752 -43.19302368 146.15390015 C-44.30677368 145.45265015 -45.42052368 144.75140015 -46.56802368 144.02890015 C-49.07403448 142.23889243 -51.17660792 140.48053372 -53.19302368 138.15390015 C-53.19302368 137.49390015 -53.19302368 136.83390015 -53.19302368 136.15390015 C-53.76150024 135.93862671 -54.32997681 135.72335327 -54.91567993 135.5015564 C-66.48354844 128.65607675 -72.35123847 111.41684177 -75.72305298 99.13046265 C-78.65335817 86.80643623 -78.78055004 71.29938045 -75.19302368 59.15390015 C-74.89009399 58.06335327 -74.58716431 56.9728064 -74.27505493 55.84921265 C-72.72351266 50.5109561 -71.23075178 45.84274167 -68.19302368 41.15390015 C-67.61552368 40.24640015 -67.03802368 39.33890015 -66.44302368 38.40390015 C-64.56931136 35.69742679 -62.66770756 33.03681199 -60.69302368 30.40390015 C-60.12583618 29.6459314 -59.55864868 28.88796265 -58.97427368 28.10702515 C-57.1371539 26.09263942 -55.5918806 25.35332861 -53.19302368 24.15390015 C-52.86302368 23.16390015 -52.53302368 22.17390015 -52.19302368 21.15390015 C-51.53302368 21.15390015 -50.87302368 21.15390015 -50.19302368 21.15390015 C-49.94552368 20.51452515 -49.69802368 19.87515015 -49.44302368 19.21640015 C-48.19302368 17.15390015 -48.19302368 17.15390015 -46.06802368 16.40390015 C-45.13989868 16.28015015 -45.13989868 16.28015015 -44.19302368 16.15390015 C-44.19302368 15.49390015 -44.19302368 14.83390015 -44.19302368 14.15390015 C-42.25161743 12.7515564 -42.25161743 12.7515564 -39.63052368 11.21640015 C-38.78360962 10.71237671 -37.93669556 10.20835327 -37.06411743 9.6890564 C-31.40914986 6.66537986 -25.76908063 4.63283952 -19.56802368 3.02890015 C-18.29700806 2.69632202 -17.02599243 2.3637439 -15.71646118 2.02108765 C-10.32968184 0.69529495 -5.57253916 0.02433584 0 0 Z " fill="#FE7E36" transform="translate(170.19302368164063,13.846099853515625)"/>
<path d="M0 0 C1.79170608 0.00294914 3.58341391 0.0049842 5.37512207 0.00610352 C11.93891014 0.01648992 18.50266106 0.04441188 25.06640625 0.0703125 C39.77203125 0.1115625 54.47765625 0.1528125 69.62890625 0.1953125 C69.62890625 51.6753125 69.62890625 103.1553125 69.62890625 156.1953125 C54.71703125 156.2778125 39.80515625 156.3603125 24.44140625 156.4453125 C19.75671143 156.48172852 15.0720166 156.51814453 10.24536133 156.55566406 C4.4642334 156.57373047 4.4642334 156.57373047 1.74613953 156.5770874 C-0.12666135 156.58317491 -1.9994479 156.59712771 -3.87214661 156.61761475 C-14.05820576 156.72334558 -23.17344949 156.73901851 -32.82173157 153.14202881 C-35.25060513 152.24005645 -37.50603777 151.72425092 -40.05859375 151.3203125 C-45.49804533 150.20042541 -49.79393496 147.22075988 -54.37109375 144.1953125 C-55.48484375 143.4940625 -56.59859375 142.7928125 -57.74609375 142.0703125 C-60.25210455 140.28030479 -62.35467799 138.52194607 -64.37109375 136.1953125 C-64.37109375 135.5353125 -64.37109375 134.8753125 -64.37109375 134.1953125 C-64.93957031 133.98003906 -65.50804688 133.76476562 -66.09375 133.54296875 C-77.6616185 126.6974891 -83.52930854 109.45825412 -86.90112305 97.171875 C-89.83142824 84.84784859 -89.95862011 69.34079281 -86.37109375 57.1953125 C-86.06816406 56.10476562 -85.76523438 55.01421875 -85.453125 53.890625 C-83.90158273 48.55236845 -82.40882185 43.88415403 -79.37109375 39.1953125 C-78.79359375 38.2878125 -78.21609375 37.3803125 -77.62109375 36.4453125 C-75.74738143 33.73883915 -73.84577763 31.07822434 -71.87109375 28.4453125 C-71.30390625 27.68734375 -70.73671875 26.929375 -70.15234375 26.1484375 C-68.31522396 24.13405177 -66.76995067 23.39474096 -64.37109375 22.1953125 C-64.04109375 21.2053125 -63.71109375 20.2153125 -63.37109375 19.1953125 C-62.71109375 19.1953125 -62.05109375 19.1953125 -61.37109375 19.1953125 C-61.12359375 18.5559375 -60.87609375 17.9165625 -60.62109375 17.2578125 C-59.37109375 15.1953125 -59.37109375 15.1953125 -57.24609375 14.4453125 C-56.31796875 14.3215625 -56.31796875 14.3215625 -55.37109375 14.1953125 C-55.37109375 13.5353125 -55.37109375 12.8753125 -55.37109375 12.1953125 C-50.13372383 8.41218212 -44.3599762 5.5659118 -38.37109375 3.1953125 C-37.71109375 2.8653125 -37.05109375 2.5353125 -36.37109375 2.1953125 C-24.29844933 -0.14498288 -12.24639105 -0.0681263 0 0 Z " fill="#FE4B35" transform="translate(181.37109375,15.8046875)"/>
<path d="M0 0 C1.30429207 -0.00043808 1.30429207 -0.00043808 2.63493347 -0.00088501 C5.47010764 0.00049318 8.30500924 0.01598218 11.14013672 0.03173828 C13.12124488 0.0354738 15.1023549 0.03831822 17.08346558 0.04031372 C22.26852625 0.04790777 27.45347282 0.06751947 32.63848877 0.08972168 C37.94110572 0.1102717 43.24374132 0.11933493 48.54638672 0.12939453 C58.92924903 0.15076974 69.31202709 0.18485401 79.69482422 0.22705078 C79.71827936 8.97395697 79.73590458 17.72085188 79.74663639 26.46778297 C79.75179422 30.53191892 79.75875792 34.59603293 79.77026367 38.66015625 C79.85587332 69.76144052 79.85587332 69.76144052 79.25341797 83.31298828 C79.21442886 84.19741608 79.17543976 85.08184387 79.13526917 85.99307251 C78.96330538 89.2724196 78.73831809 92.09656918 77.69482422 95.22705078 C77.61841491 96.85145617 77.55796764 98.47663807 77.50732422 100.10205078 C76.95609612 107.2014885 73.93985035 112.98508921 70.69482422 119.22705078 C70.03482422 119.22705078 69.37482422 119.22705078 68.69482422 119.22705078 C68.43572266 119.95666016 68.17662109 120.68626953 67.90966797 121.43798828 C66.65670565 124.31456414 65.21086992 126.40696778 63.25732422 128.85205078 C62.66048828 129.60744141 62.06365234 130.36283203 61.44873047 131.14111328 C59.92811438 132.94959656 58.47320967 134.67158272 56.69482422 136.22705078 C56.03482422 136.22705078 55.37482422 136.22705078 54.69482422 136.22705078 C54.36482422 137.21705078 54.03482422 138.20705078 53.69482422 139.22705078 C49.35196708 143.22705078 49.35196708 143.22705078 45.69482422 143.22705078 C45.69482422 143.88705078 45.69482422 144.54705078 45.69482422 145.22705078 C43.44956476 146.40371082 41.1993828 147.56845818 38.94482422 148.72705078 C38.31060547 149.06091797 37.67638672 149.39478516 37.02294922 149.73876953 C33.57471429 151.49880611 31.64642353 152.22705078 27.69482422 152.22705078 C27.69482422 152.88705078 27.69482422 153.54705078 27.69482422 154.22705078 C4.09804223 160.5754236 -17.99162961 159.08609466 -39.98486328 147.61767578 C-45.14318444 144.5261567 -50.3106999 140.75996699 -54.30517578 136.22705078 C-54.30517578 135.56705078 -54.30517578 134.90705078 -54.30517578 134.22705078 C-55.21009766 133.81712891 -55.21009766 133.81712891 -56.13330078 133.39892578 C-66.91159196 127.58330104 -72.91519393 111.01620905 -76.34033203 99.89892578 C-81.7016641 79.49547581 -79.53363092 56.40442901 -68.99267578 37.78955078 C-68.15736328 36.52111328 -68.15736328 36.52111328 -67.30517578 35.22705078 C-66.64517578 35.22705078 -65.98517578 35.22705078 -65.30517578 35.22705078 C-65.11955078 34.56705078 -64.93392578 33.90705078 -64.74267578 33.22705078 C-62.69708804 28.9579981 -59.73332935 25.48541372 -56.30517578 22.22705078 C-55.64517578 22.22705078 -54.98517578 22.22705078 -54.30517578 22.22705078 C-54.07830078 21.64955078 -53.85142578 21.07205078 -53.61767578 20.47705078 C-51.95669356 17.62965269 -49.98993017 16.10637885 -47.30517578 14.22705078 C-46.64517578 14.22705078 -45.98517578 14.22705078 -45.30517578 14.22705078 C-45.30517578 13.56705078 -45.30517578 12.90705078 -45.30517578 12.22705078 C-42.66871486 10.72871765 -40.02296465 9.25384816 -37.36767578 7.78955078 C-36.63226563 7.36867188 -35.89685547 6.94779297 -35.13916016 6.51416016 C-30.61178183 4.04288378 -26.89489039 2.73938292 -21.73978996 2.44602776 C-19.28417901 2.22516226 -17.00461287 1.76547508 -14.60183716 1.22000122 C-9.67360809 0.20987575 -5.01778042 -0.04531243 0 0 Z " fill="#19B66F" transform="translate(171.30517578125,329.77294921875)"/>
<path d="M0 0 C0.71353638 0.00202423 1.42707275 0.00404846 2.16223145 0.00613403 C2.89091431 0.00517731 3.61959717 0.00422058 4.37036133 0.00323486 C5.91377855 0.00255318 7.45719861 0.00440666 9.00061035 0.00857544 C11.37095544 0.01392391 13.74111104 0.00863011 16.1114502 0.00222778 C17.60754437 0.00288857 19.10363842 0.00416973 20.59973145 0.00613403 C21.31326782 0.0041098 22.0268042 0.00208557 22.76196289 0 C27.76602953 0.02399462 27.76602953 0.02399462 28.88098145 1.13894653 C30.85694202 1.41313714 32.83703155 1.65773884 34.81848145 1.88894653 C40.34860924 2.69454018 44.61505526 4.08800933 49.46691895 6.82254028 C51.99066204 8.26447956 51.99066204 8.26447956 55.29504395 9.47488403 C59.11591853 11.24796963 61.88581344 13.43948977 64.88098145 16.32644653 C65.65852783 17.06217896 65.65852783 17.06217896 66.45178223 17.81277466 C81.83029111 32.52307075 91.07630908 51.75902488 91.9708252 73.30276489 C92.05920185 79.40136813 91.43728083 85.0495489 90.19348145 91.01394653 C90.01414062 91.88454712 89.8347998 92.75514771 89.65002441 93.65213013 C87.36446238 104.19078422 83.43313671 114.45397826 76.88098145 123.13894653 C76.22098145 123.13894653 75.56098145 123.13894653 74.88098145 123.13894653 C74.55098145 124.45894653 74.22098145 125.77894653 73.88098145 127.13894653 C73.22098145 127.13894653 72.56098145 127.13894653 71.88098145 127.13894653 C71.71598145 127.84019653 71.55098145 128.54144653 71.38098145 129.26394653 C69.49682487 132.87524664 67.15737132 134.42443391 63.8536377 136.70925903 C61.89303375 138.03809328 61.89303375 138.03809328 60.5177002 139.57644653 C47.90385152 151.61830684 27.30956055 156.28982944 10.40441895 156.09988403 C7.20510049 155.8937227 4.05929054 155.55544251 0.88098145 155.13894653 C-0.09097168 155.0371106 -1.0629248 154.93527466 -2.06433105 154.83035278 C-13.26995295 153.38109235 -23.44997216 148.85866412 -33.11901855 143.13894653 C-33.11901855 142.47894653 -33.11901855 141.81894653 -33.11901855 141.13894653 C-33.84089355 140.91207153 -34.56276855 140.68519653 -35.30651855 140.45144653 C-38.70470158 138.86562779 -40.57132854 136.8777133 -43.11901855 134.13894653 C-44.38745605 132.96332153 -44.38745605 132.96332153 -45.68151855 131.76394653 C-47.8833865 129.39270413 -49.39034435 127.16213825 -50.8963623 124.31472778 C-52.15341979 122.01069314 -52.15341979 122.01069314 -53.9354248 119.43191528 C-59.19664961 111.49515301 -62.22691861 103.78251021 -64.9901123 94.71707153 C-65.74776124 91.35634234 -65.74776124 91.35634234 -67.11901855 90.13894653 C-67.37440817 85.74924981 -67.30425595 81.34768096 -67.30651855 76.95144653 C-67.31876465 75.71845825 -67.33101074 74.48546997 -67.34362793 73.21511841 C-67.34556152 72.020802 -67.34749512 70.8264856 -67.3494873 69.59597778 C-67.35359619 68.50261108 -67.35770508 67.40924438 -67.36193848 66.28274536 C-67.10354888 62.93874256 -66.30051306 60.26682566 -65.11901855 57.13894653 C-62.95145036 50.85471059 -62.95145036 50.85471059 -61.43151855 44.38894653 C-60.45891486 40.22789421 -58.32273907 36.75275533 -56.11901855 33.13894653 C-55.76235107 32.55016724 -55.40568359 31.96138794 -55.03820801 31.35476685 C-54.12547137 29.90958272 -53.12836672 28.51838903 -52.11901855 27.13894653 C-51.45901855 27.13894653 -50.79901855 27.13894653 -50.11901855 27.13894653 C-50.11901855 26.14894653 -50.11901855 25.15894653 -50.11901855 24.13894653 C-48.4744873 22.42019653 -48.4744873 22.42019653 -46.30651855 20.63894653 C-43.36450134 18.22224547 -43.36450134 18.22224547 -40.6697998 15.54519653 C-38.6606216 13.72327171 -36.65629276 13.08536086 -34.11901855 12.13894653 C-31.0483418 10.61773085 -28.00443069 9.04958155 -24.9588623 7.47879028 C-22.11901855 6.13894653 -22.11901855 6.13894653 -19.8104248 5.64285278 C-19.25226074 5.47656372 -18.69409668 5.31027466 -18.11901855 5.13894653 C-17.78901855 4.14894653 -17.45901855 3.15894653 -17.11901855 2.13894653 C-16.33655762 2.0783606 -15.55409668 2.01777466 -14.7479248 1.95535278 C-13.23005371 1.82966919 -13.23005371 1.82966919 -11.68151855 1.70144653 C-10.67218262 1.6202356 -9.66284668 1.53902466 -8.6229248 1.45535278 C-5.48551955 1.0588944 -3.43928315 0.01649145 0 0 Z " fill="#02A8FE" transform="translate(317.1190185546875,174.86105346679688)"/>
<path d="M0 0 C3.99491865 0.43423029 7.39396493 1.12566136 11.16130066 2.51870728 C18.7913431 4.82956651 26.65315578 4.41886862 34.54418945 4.38818359 C36.30780359 4.39225465 38.07141517 4.39759952 39.83502197 4.40411377 C44.60174379 4.41773265 49.36826972 4.41251042 54.13499475 4.40297651 C59.14039123 4.39534811 64.14577164 4.40243466 69.15116882 4.40713501 C77.55808502 4.41258484 85.96492202 4.40542283 94.37182617 4.39111328 C104.0648282 4.37480423 113.75764071 4.38006574 123.45063812 4.3965925 C131.79663781 4.41024848 140.14258076 4.41210651 148.48858804 4.40427649 C153.46265684 4.39962046 158.43663688 4.39891742 163.41069984 4.40888596 C168.09184669 4.41761282 172.7727517 4.41143025 177.45387268 4.39420319 C179.16256498 4.39026799 180.87127796 4.39132087 182.57996178 4.39799118 C191.57333481 4.42983644 199.66689628 4.05031643 208.39605999 1.54494667 C211 1 211 1 215 2 C211.7 3.32 208.4 4.64 205 6 C205.82242188 6.23074219 206.64484375 6.46148437 207.4921875 6.69921875 C214.64675038 8.7894086 221.64646836 11.00867884 228 15 C228.33 15.66 228.66 16.32 229 17 C225.4168182 15.89748252 222.10951418 14.57847051 218.75 12.9375 C214.48707444 10.98003418 210.62761552 10.4274175 205.96875 10.17578125 C204 10 204 10 203 9 C200.56339554 8.89917236 198.15575299 8.86027397 195.71875 8.8671875 C194.99006714 8.86623077 194.26138428 8.86527405 193.51062012 8.86428833 C191.9672029 8.86360665 190.42378283 8.86546012 188.88037109 8.86962891 C186.510026 8.87497738 184.13987041 8.86968358 181.76953125 8.86328125 C180.27343708 8.86394203 178.77734303 8.8652232 177.28125 8.8671875 C176.56771362 8.86516327 175.85417725 8.86313904 175.11901855 8.86105347 C171.77513571 8.58351349 171.77513571 8.58351349 169 10 C167.14712498 10.07226502 165.29166122 10.0838122 163.4375 10.0625 C162.42558594 10.05347656 161.41367187 10.04445312 160.37109375 10.03515625 C159.58863281 10.02355469 158.80617188 10.01195312 158 10 C157.8453125 10.94359375 157.8453125 10.94359375 157.6875 11.90625 C157.3471875 12.94265625 157.3471875 12.94265625 157 14 C154 15.5 154 15.5 152.109375 16.20703125 C148.99988341 17.37596976 146.02452007 18.82596703 143.015625 20.23046875 C141 21 141 21 138 21 C142.3077765 17.24806563 146.98180119 14.65570789 152 12 C152.72058594 11.60167969 153.44117188 11.20335937 154.18359375 10.79296875 C157.91825999 8.79502821 160.64086732 7.45510842 165 8 C165 7.34 165 6.68 165 6 C137.775 6.495 137.775 6.495 110 7 C110.33 23.5 110.66 40 111 57 C111.99 55.68 112.98 54.36 114 53 C113.45766142 57.01330548 112.57235376 60.89549148 111.5625 64.8125 C111.31628906 65.76769531 111.07007813 66.72289062 110.81640625 67.70703125 C110 70 110 70 108 71 C108 49.88 108 28.76 108 7 C92.15039774 6.94181854 92.15039774 6.94181854 76.30078125 6.90234375 C69.83541579 6.89039287 63.37010703 6.87626166 56.90478516 6.84912109 C51.69173181 6.82737459 46.47873928 6.81542751 41.26564407 6.81024551 C39.27775744 6.80655302 37.2898741 6.79934252 35.3020134 6.78853989 C32.51555971 6.77400105 29.72935667 6.77202307 26.94287109 6.77294922 C25.71287888 6.76216339 25.71287888 6.76216339 24.45803833 6.75115967 C18.68344064 6.77189881 14.10413446 7.39684993 9.375 11 C5.97008447 13.01772772 4.09222319 13.42160047 0.25 13.9375 C-5.90263743 14.77579685 -10.661226 16.90540091 -16 20 C-16 19.34 -16 18.68 -16 18 C1.42998686 8.35486806 1.42998686 8.35486806 9.3125 6.4375 C11.02271028 6.14629643 11.02271028 6.14629643 12 5 C8.04 3.68 4.08 2.36 0 1 C0 0.67 0 0.34 0 0 Z " fill="#AA66D0" transform="translate(142,167)"/>
<path d="M0 0 C2 1 2 1 3.2265625 4.578125 C3.69434548 6.13492568 4.16037843 7.69225289 4.625 9.25 C7.81244576 19.40499825 12.52569944 27.54131629 19 36 C18.67 36.66 18.34 37.32 18 38 C13.25398626 32.66073455 9.85143095 27.0457721 6.75 20.65625 C6.38648438 19.91793945 6.02296875 19.17962891 5.6484375 18.41894531 C4.76100779 16.61489413 3.8798539 14.80775808 3 13 C3.00523682 14.14992432 3.01047363 15.29984863 3.01586914 16.48461914 C3.13689844 46.38000997 3.00088554 76.27584623 2.73654175 106.1701355 C2.7024073 110.08949278 2.67517216 114.00880577 2.65383911 117.92825317 C2.62790788 122.62121004 2.58756975 127.31383919 2.53687668 132.0065918 C2.52035904 133.74881018 2.50869956 135.49108274 2.50236893 137.23336792 C2.4635002 146.91042397 2.00182105 155.6866688 -1 165 C-1.33 165 -1.66 165 -2 165 C-1.84587646 163.87029785 -1.69175293 162.7405957 -1.53295898 161.57666016 C-0.96237329 156.97992982 -0.67633813 152.39953501 -0.47265625 147.7734375 C-0.43133072 146.84558441 -0.39000519 145.91773132 -0.34742737 144.96176147 C0.24677521 130.32986027 0.35148528 115.68157699 0.53222656 101.04003906 C0.58333561 96.962856 0.63854476 92.88572838 0.69335938 88.80859375 C0.79947661 80.87244331 0.90121798 72.93624512 1 65 C-10.43156252 65.08459552 -21.86298841 65.17955277 -33.29435539 65.28752708 C-38.60311169 65.33734956 -43.91184943 65.38368033 -49.22070312 65.421875 C-54.34957813 65.45890588 -59.4782924 65.50531301 -64.60702896 65.55806351 C-66.55807789 65.57651324 -68.50916115 65.59165548 -70.4602623 65.60334396 C-73.20528165 65.62036874 -75.94994038 65.64944081 -78.69482422 65.68115234 C-79.49108719 65.68331253 -80.28735016 65.68547272 -81.10774231 65.68769836 C-86.18103141 65.76196417 -90.81659731 66.46972755 -95.74901009 67.67136574 C-98.15501094 68.02263089 -99.70699627 67.74814668 -102 67 C-99.525 66.01 -99.525 66.01 -97 65 C-100.96747043 62.35501971 -105.28786183 60.87751284 -109.7265625 59.2109375 C-114.89363272 57.21273456 -114.89363272 57.21273456 -116 55 C-115.195625 55.309375 -114.39125 55.61875 -113.5625 55.9375 C-110.02432423 56.99274541 -106.82881459 57.3771684 -103.17578125 57.71484375 C-100.30782203 58.09071632 -97.72358314 59.04991286 -95 60 C-93.68 60 -92.36 60 -91 60 C-91 60.66 -91 61.32 -91 62 C-60.97 62.33 -30.94 62.66 0 63 C0 42.21 0 21.42 0 0 Z " fill="#767CD8" transform="translate(250,265)"/>
<path d="M0 0 C29.37 0 58.74 0 89 0 C89.020625 11.09625 89.04125 22.1925 89.0625 33.625 C89.071604 37.0792041 89.08070801 40.5334082 89.09008789 44.09228516 C89.13069888 70.21708344 89.13069888 70.21708344 88.55859375 83.0859375 C88.51960464 83.9703653 88.48061554 84.85479309 88.44044495 85.76602173 C88.26848116 89.04536882 88.04349387 91.8695184 87 95 C86.92359069 96.62440539 86.86314342 98.24958729 86.8125 99.875 C86.2612719 106.97443772 83.24502613 112.75803843 80 119 C79.34 119 78.68 119 78 119 C78.4640625 117.7625 78.4640625 117.7625 78.9375 116.5 C80.11877583 112.60873845 80.58224168 109.03833047 81 105 C81.66 105 82.32 105 83 105 C83.13277344 104.24074219 83.26554687 103.48148437 83.40234375 102.69921875 C83.57894531 101.70535156 83.75554687 100.71148437 83.9375 99.6875 C84.11152344 98.70136719 84.28554687 97.71523438 84.46484375 96.69921875 C85 94 85 94 86 91 C86.1204002 88.12540889 86.18540098 85.27327277 86.20532227 82.39770508 C86.21522186 81.51944565 86.22512146 80.64118622 86.23532104 79.73631287 C86.26693119 76.8307465 86.29169161 73.92516378 86.31640625 71.01953125 C86.33697619 69.00599236 86.35797268 66.99245778 86.37937927 64.97892761 C86.43459577 59.67712903 86.48400695 54.37529151 86.53222656 49.07342529 C86.59127262 42.71323635 86.6574983 36.35311864 86.72252655 29.99298859 C86.82053077 20.32870253 86.9093905 10.66437097 87 1 C58.29 1 29.58 1 0 1 C0 0.67 0 0.34 0 0 Z " fill="#32AB7E" transform="translate(162,330)"/>
<path d="M0 0 C1.59692898 3.08762176 2.80599486 6.20055199 3.95385742 9.48339844 C7.31669584 19.01349226 11.88147288 26.94055038 18 35 C17.67 35.66 17.34 36.32 17 37 C12.25398626 31.66073455 8.85143095 26.0457721 5.75 19.65625 C5.38648438 18.91793945 5.02296875 18.17962891 4.6484375 17.41894531 C3.76100779 15.61489413 2.8798539 13.80775808 2 12 C2.00523682 13.14992432 2.01047363 14.29984863 2.01586914 15.48461914 C2.13689844 45.38000997 2.00088554 75.27584623 1.73654175 105.1701355 C1.7024073 109.08949278 1.67517216 113.00880577 1.65383911 116.92825317 C1.62790788 121.62121004 1.58756975 126.31383919 1.53687668 131.0065918 C1.52035904 132.74881018 1.50869956 134.49108274 1.50236893 136.23336792 C1.4635002 145.91042397 1.00182105 154.6866688 -2 164 C-2.33 164 -2.66 164 -3 164 C-2.76929054 162.31494858 -2.76929054 162.31494858 -2.53392029 160.59585571 C-1.94962412 155.89169081 -1.6661984 151.200478 -1.45727539 146.46630859 C-1.41545419 145.52340155 -1.37363298 144.5804945 -1.33054447 143.60901451 C-0.80737585 130.64907369 -0.77156431 117.67939489 -0.69667697 104.71083498 C-0.67440657 101.01401934 -0.647224 97.31723942 -0.62062073 93.62045288 C-0.57123639 86.65842617 -0.52610263 79.69637904 -0.48259836 72.73431337 C-0.43275394 64.79197174 -0.37801509 56.84966602 -0.32291877 48.90735936 C-0.20993466 32.60493956 -0.10292258 16.3024865 0 0 Z " fill="#B6F0D7" transform="translate(251,266)"/>
<path d="M0 0 C-3.3 1.32 -6.6 2.64 -10 4 C-9.17757812 4.23074219 -8.35515625 4.46148437 -7.5078125 4.69921875 C-0.35324962 6.7894086 6.64646836 9.00867884 13 13 C13.495 13.99 13.495 13.99 14 15 C10.4168182 13.89748252 7.10951418 12.57847051 3.75 10.9375 C-0.51292556 8.98003418 -4.37238448 8.4274175 -9.03125 8.17578125 C-11 8 -11 8 -12 7 C-14.43660446 6.89917236 -16.84424701 6.86027397 -19.28125 6.8671875 C-20.00993286 6.86623077 -20.73861572 6.86527405 -21.48937988 6.86428833 C-23.0327971 6.86360665 -24.57621717 6.86546012 -26.11962891 6.86962891 C-28.489974 6.87497738 -30.86012959 6.86968358 -33.23046875 6.86328125 C-34.72656292 6.86394203 -36.22265697 6.8652232 -37.71875 6.8671875 C-38.78905457 6.86415115 -38.78905457 6.86415115 -39.88098145 6.86105347 C-43.22486429 6.58351349 -43.22486429 6.58351349 -46 8 C-47.85287502 8.07226502 -49.70833878 8.0838122 -51.5625 8.0625 C-52.57441406 8.05347656 -53.58632813 8.04445312 -54.62890625 8.03515625 C-55.80259766 8.01775391 -55.80259766 8.01775391 -57 8 C-57.103125 8.6290625 -57.20625 9.258125 -57.3125 9.90625 C-57.539375 10.5971875 -57.76625 11.288125 -58 12 C-61 13.5 -61 13.5 -62.890625 14.20703125 C-66.00011659 15.37596976 -68.97547993 16.82596703 -71.984375 18.23046875 C-74 19 -74 19 -77 19 C-73.3573731 15.82738948 -69.54336256 13.48716093 -65.30078125 11.23046875 C-63.90083089 10.48176864 -62.51697449 9.70029761 -61.16796875 8.86328125 C-55.55654834 5.57467103 -49.64726867 5.07648721 -43.29296875 4.39453125 C-40.00108391 4.11209877 -40.00108391 4.11209877 -37 3 C-35.59907554 2.8878566 -34.19407202 2.82243492 -32.7890625 2.7890625 C-31.54866211 2.74918213 -31.54866211 2.74918213 -30.28320312 2.70849609 C-28.96739258 2.66716553 -28.96739258 2.66716553 -27.625 2.625 C-20.26063573 2.34532382 -13.63279952 1.56046092 -6.53125 -0.4765625 C-4 -1 -4 -1 0 0 Z " fill="#60C5F3" transform="translate(357,169)"/>
<path d="M0 0 C-10.25854146 11.63116321 -29.38296028 16.4355905 -44.1484375 17.7890625 C-49.86587427 18.10218784 -55.33181694 17.75766381 -61 17 C-62.05316406 16.86335938 -63.10632813 16.72671875 -64.19140625 16.5859375 C-70.1601343 15.70444825 -75.44379652 14.35070147 -81 12 C-81 11.67 -81 11.34 -81 11 C-74.57967242 10.74822245 -74.57967242 10.74822245 -71.77075195 11.96826172 C-68.16103119 13.31240481 -64.66239655 13.46080565 -60.85546875 13.6328125 C-60.08568192 13.67437469 -59.31589508 13.71593689 -58.52278137 13.75875854 C-56.07802998 13.88890732 -53.63287068 14.00712183 -51.1875 14.125 C-49.52404737 14.21145097 -47.86063509 14.29868208 -46.19726562 14.38671875 C-42.1319221 14.60018194 -38.06617071 14.80294833 -34 15 C-33.67 14.01 -33.34 13.02 -33 12 C-31.97519531 11.81824219 -30.95039063 11.63648438 -29.89453125 11.44921875 C-28.5337571 11.19583322 -27.17308527 10.9418978 -25.8125 10.6875 C-25.13896484 10.56955078 -24.46542969 10.45160156 -23.77148438 10.33007812 C-19.62758068 9.54172571 -16.39969629 8.52440135 -13 6 C-12.566875 5.154375 -12.13375 4.30875 -11.6875 3.4375 C-9.76508637 0.66068031 -9.0856297 0.45732926 -5.9375 -0.375 C-2 -1 -2 -1 0 0 Z " fill="#70CCF2" transform="translate(379,313)"/>
<path d="M0 0 C22.77 0 45.54 0 69 0 C65.83759418 2.10827055 64.49342531 2.33817465 60.8125 2.625 C59.46091797 2.73714844 59.46091797 2.73714844 58.08203125 2.8515625 C57.39496094 2.90054688 56.70789063 2.94953125 56 3 C56 2.34 56 1.68 56 1 C28.775 1.495 28.775 1.495 1 2 C1.33 18.5 1.66 35 2 52 C2.99 50.68 3.98 49.36 5 48 C4.32584613 53.2584002 2.75734451 58.02638346 1 63 C0.67 63 0.34 63 0 63 C0 42.21 0 21.42 0 0 Z " fill="#F7E5FF" transform="translate(251,172)"/>
<path d="M0 0 C-0.125 1.875 -0.125 1.875 -1 4 C-1.94875 4.2475 -2.8975 4.495 -3.875 4.75 C-7.06425152 5.62585761 -7.06425152 5.62585761 -7.921875 7.828125 C-8.38837871 9.26910312 -8.8455212 10.7131475 -9.29296875 12.16015625 C-10 14 -10 14 -11.9375 15.4375 C-12.9584375 15.7159375 -12.9584375 15.7159375 -14 16 C-14.7425 16.20625 -15.485 16.4125 -16.25 16.625 C-16.8275 16.74875 -17.405 16.8725 -18 17 C-18.0825 18.0725 -18.165 19.145 -18.25 20.25 C-19.05570153 24.27850766 -19.78191466 25.56205656 -23 28 C-23.66 28 -24.32 28 -25 28 C-25.33 29.65 -25.66 31.3 -26 33 C-27.485 33.495 -27.485 33.495 -29 34 C-30.02281518 36.09719872 -30.02281518 36.09719872 -30.6875 38.5625 C-30.93886719 39.38878906 -31.19023438 40.21507812 -31.44921875 41.06640625 C-31.63097656 41.70449219 -31.81273438 42.34257813 -32 43 C-33.39258774 38.60285651 -32.01037389 35.95816804 -30 32 C-29.65839844 31.30648437 -29.31679687 30.61296875 -28.96484375 29.8984375 C-25.14316474 22.56599574 -20.54063528 14.74599301 -13 11 C-12.67 10.01 -12.34 9.02 -12 8 C-11.34 8 -10.68 8 -10 8 C-9.7525 7.360625 -9.505 6.72125 -9.25 6.0625 C-8 4 -8 4 -5.875 3.25 C-5.25625 3.1675 -4.6375 3.085 -4 3 C-4 2.34 -4 1.68 -4 1 C-2 0 -2 0 0 0 Z " fill="#FAA9A0" transform="translate(130,27)"/>
<path d="M0 0 C1.57425365 3.14850731 2.79679526 6.17424145 3.95385742 9.48339844 C7.31669584 19.01349226 11.88147288 26.94055038 18 35 C17.67 35.66 17.34 36.32 17 37 C10.13971267 29.28217676 6.80999979 21.61999958 2 12 C1.67 29.16 1.34 46.32 1 64 C0.67 64 0.34 64 0 64 C0 42.88 0 21.76 0 0 Z " fill="#DCE7FE" transform="translate(251,266)"/>
<path d="M0 0 C0.804375 0.309375 1.60875 0.61875 2.4375 0.9375 C5.97567577 1.99274541 9.17118541 2.3771684 12.82421875 2.71484375 C15.69217797 3.09071632 18.27641686 4.04991286 21 5 C22.32 5 23.64 5 25 5 C25 5.66 25 6.32 25 7 C27.97 7 30.94 7 34 7 C34.495 8.485 34.495 8.485 35 10 C33.98679688 10.13277344 32.97359375 10.26554687 31.9296875 10.40234375 C30.57811796 10.58067584 29.22655586 10.75906425 27.875 10.9375 C27.20984375 11.02451172 26.5446875 11.11152344 25.859375 11.20117188 C21.89169812 11.72630558 17.94373002 12.31814014 14 13 C16 11 16 11 19 9 C18.45996338 8.79842285 17.91992676 8.5968457 17.36352539 8.38916016 C14.9270457 7.47505367 12.49479185 6.55018875 10.0625 5.625 C9.21236328 5.30789063 8.36222656 4.99078125 7.48632812 4.6640625 C6.67744141 4.3546875 5.86855469 4.0453125 5.03515625 3.7265625 C4.2862915 3.44377441 3.53742676 3.16098633 2.76586914 2.86962891 C1 2 1 2 0 0 Z " fill="#A690EC" transform="translate(134,320)"/>
<path d="M0 0 C5.26770198 0.65759749 10.30133173 1.73264124 15.4375 3.0625 C16.53481445 3.3419043 16.53481445 3.3419043 17.65429688 3.62695312 C19.43703198 4.0813758 21.21863787 4.54022466 23 5 C23 5.33 23 5.66 23 6 C22.35933594 6.08636719 21.71867187 6.17273438 21.05859375 6.26171875 C16.61450179 6.98363533 13.12373955 7.55689155 9.625 10.5 C5.77811678 13.61371254 1.8888677 13.78116077 -2.91015625 14.3984375 C-7.74004315 15.33876946 -11.77307084 17.54987735 -16 20 C-16 19.34 -16 18.68 -16 18 C1.42998686 8.35486806 1.42998686 8.35486806 9.3125 6.4375 C11.02271028 6.14629643 11.02271028 6.14629643 12 5 C8.04 3.68 4.08 2.36 0 1 C0 0.67 0 0.34 0 0 Z " fill="#BDA7F5" transform="translate(142,167)"/>
<path d="M0 0 C0.33 0 0.66 0 1 0 C0.0583283 9.88755288 -1.58080469 18.10130924 -6.375 26.875 C-6.95507812 27.99261719 -6.95507812 27.99261719 -7.546875 29.1328125 C-9.5656046 32.89930129 -11.18979411 35.79042855 -15 38 C-13.87548273 35.0280615 -12.77706209 32.66559313 -11 30 C-10.20988819 27.41041887 -9.54444502 24.80381181 -8.87890625 22.1796875 C-8.58886719 21.46039063 -8.29882812 20.74109375 -8 20 C-7.01 19.67 -6.02 19.34 -5 19 C-4.505 14.545 -4.505 14.545 -4 10 C-3.34 10 -2.68 10 -2 10 C-1.34 6.7 -0.68 3.4 0 0 Z " fill="#F7C3A0" transform="translate(407,104)"/>
<path d="M0 0 C0.66 0.33 1.32 0.66 2 1 C-0.31 4.3 -2.62 7.6 -5 11 C-5.33 10.01 -5.66 9.02 -6 8 C-6.99 9.485 -6.99 9.485 -8 11 C-8.66 11 -9.32 11 -10 11 C-10.33 13.31 -10.66 15.62 -11 18 C-11.66 18 -12.32 18 -13 18 C-13.2475 18.7425 -13.495 19.485 -13.75 20.25 C-15.11153526 23.24537757 -16.62032943 24.76455189 -19 27 C-20.02323436 28.31558703 -21.03126968 29.64377755 -22 31 C-21.43986245 26.42410709 -19.4760251 23.01923808 -17.0625 19.1875 C-16.70220703 18.59001953 -16.34191406 17.99253906 -15.97070312 17.37695312 C-15.04093616 15.87870985 -14.02648071 14.43371436 -13 13 C-12.34 13 -11.68 13 -11 13 C-11 12.01 -11 11.02 -11 10 C-9.35546875 8.28125 -9.35546875 8.28125 -7.1875 6.5 C-4.67995122 4.41722724 -2.26646761 2.34511475 0 0 Z " fill="#7CD3F6" transform="translate(278,189)"/>
<path d="M0 0 C22.77 0 45.54 0 69 0 C65.83759418 2.10827055 64.49342531 2.33817465 60.8125 2.625 C59.46091797 2.73714844 59.46091797 2.73714844 58.08203125 2.8515625 C57.39496094 2.90054688 56.70789063 2.94953125 56 3 C56 2.34 56 1.68 56 1 C37.52 1 19.04 1 0 1 C0 0.67 0 0.34 0 0 Z " fill="#FEC9AB" transform="translate(251,172)"/>
<path d="M0 0 C0 3 0 3 -2.45703125 5.48828125 C-3.56511541 6.44191335 -4.68438578 7.38264894 -5.8125 8.3125 C-6.39692871 8.79944336 -6.98135742 9.28638672 -7.58349609 9.78808594 C-12.59516158 13.86201494 -17.89805516 17.74632002 -24 20 C-24.99 19.67 -25.98 19.34 -27 19 C-25.68 18.34 -24.36 17.68 -23 17 C-23 16.01 -23 15.02 -23 14 C-20.69 13.34 -18.38 12.68 -16 12 C-16 11.34 -16 10.68 -16 10 C-14.6078125 9.566875 -14.6078125 9.566875 -13.1875 9.125 C-9.90208333 8.1125 -9.90208333 8.1125 -7 6 C-6.27617533 3.94074861 -6.27617533 3.94074861 -6 2 C-4.7934375 1.7834375 -4.7934375 1.7834375 -3.5625 1.5625 C-1.07896294 1.25864751 -1.07896294 1.25864751 0 0 Z " fill="#FDDCC2" transform="translate(387,147)"/>
<path d="M0 0 C-3.3 1.32 -6.6 2.64 -10 4 C-10 4.33 -10 4.66 -10 5 C-19.9 5 -29.8 5 -40 5 C-36.93731264 2.95820842 -36.25074355 2.74911351 -32.7890625 2.69140625 C-31.54866211 2.65635986 -31.54866211 2.65635986 -30.28320312 2.62060547 C-28.96739258 2.59184326 -28.96739258 2.59184326 -27.625 2.5625 C-20.24262733 2.3193441 -13.64987885 1.56535999 -6.53125 -0.4765625 C-4 -1 -4 -1 0 0 Z " fill="#99C1D3" transform="translate(357,169)"/>
<path d="M0 0 C0.33 0.66 0.66 1.32 1 2 C-0.24542058 3.75326198 -1.49654053 5.50247622 -2.75 7.25 C-3.44609375 8.22453125 -4.1421875 9.1990625 -4.859375 10.203125 C-6.7746302 12.70553873 -8.63866405 14.91646828 -11 17 C-11.66 17 -12.32 17 -13 17 C-13.33 17.99 -13.66 18.98 -14 20 C-16.375 22.25 -16.375 22.25 -19 24 C-19.99 23.67 -20.98 23.34 -22 23 C-21.01 22.67 -20.02 22.34 -19 22 C-19.33 20.68 -19.66 19.36 -20 18 C-18.35 17.67 -16.7 17.34 -15 17 C-15 16.01 -15 15.02 -15 14 C-14.11054688 13.79632813 -13.22109375 13.59265625 -12.3046875 13.3828125 C-8.29395349 11.7045621 -6.49748319 9.35302807 -4.125 5.875 C-3.7228125 5.31167969 -3.320625 4.74835938 -2.90625 4.16796875 C-1.92400752 2.78815194 -0.96008563 1.39532445 0 0 Z " fill="#77CFA8" transform="translate(239,449)"/>
<path d="M0 0 C6.49161901 5.77032801 9.07032667 12.92602004 12.16796875 20.8984375 C12.96871584 23.00956745 12.96871584 23.00956745 14 25 C14.04022391 27.3329866 14.04320247 29.66706666 14 32 C13.67 32 13.34 32 13 32 C12.71125 30.96875 12.4225 29.9375 12.125 28.875 C10.69920957 23.89324732 10.69920957 23.89324732 9 19 C8.34 18.67 7.68 18.34 7 18 C7 17.01 7 16.02 7 15 C6.34 15 5.68 15 5 15 C4.67 13.02 4.34 11.04 4 9 C3.34 9 2.68 9 2 9 C1.34 6.03 0.68 3.06 0 0 Z " fill="#72CCF5" transform="translate(392,203)"/>
<path d="M0 0 C0 3 0 3 -1.5 4.875 C-3.31754972 7.4498621 -3.25692834 8.91685988 -3 12 C-3.639375 12.2475 -4.27875 12.495 -4.9375 12.75 C-7.19895007 13.79688294 -7.19895007 13.79688294 -7.5625 16.0625 C-7.706875 16.701875 -7.85125 17.34125 -8 18 C-8.99 18.33 -9.98 18.66 -11 19 C-11.12375 19.928125 -11.2475 20.85625 -11.375 21.8125 C-12 25 -12 25 -14 28 C-12.86349134 16.86221513 -7.20654158 8.23604752 0 0 Z " fill="#CAB6F7" transform="translate(111,200)"/>
<path d="M0 0 C-1.98 0.33 -3.96 0.66 -6 1 C-6.020625 1.598125 -6.04125 2.19625 -6.0625 2.8125 C-7 5 -7 5 -10 6.5 C-10.62390625 6.73332031 -11.2478125 6.96664062 -11.890625 7.20703125 C-15.00011659 8.37596976 -17.97547993 9.82596703 -20.984375 11.23046875 C-23 12 -23 12 -26 12 C-21.69137558 8.24732712 -17.0171284 5.65907805 -12 3 C-11.2678125 2.59007812 -10.535625 2.18015625 -9.78125 1.7578125 C-8.74484375 1.19707031 -8.74484375 1.19707031 -7.6875 0.625 C-7.07261719 0.28726563 -6.45773437 -0.05046875 -5.82421875 -0.3984375 C-3.54061968 -1.1514873 -2.24232824 -0.7622926 0 0 Z " fill="#80D4F5" transform="translate(306,176)"/>
<path d="M0 0 C-0.125 1.875 -0.125 1.875 -1 4 C-1.94875 4.2475 -2.8975 4.495 -3.875 4.75 C-7.06425152 5.62585761 -7.06425152 5.62585761 -7.921875 7.828125 C-8.38837871 9.26910312 -8.8455212 10.7131475 -9.29296875 12.16015625 C-10 14 -10 14 -11.9375 15.4375 C-12.9584375 15.7159375 -12.9584375 15.7159375 -14 16 C-14.7425 16.20625 -15.485 16.4125 -16.25 16.625 C-16.8275 16.74875 -17.405 16.8725 -18 17 C-17.071875 15.88625 -17.071875 15.88625 -16.125 14.75 C-14.39562719 12.51198812 -13.13893339 10.56260013 -12 8 C-11.34 8 -10.68 8 -10 8 C-9.62875 7.0409375 -9.62875 7.0409375 -9.25 6.0625 C-8 4 -8 4 -5.875 3.25 C-5.25625 3.1675 -4.6375 3.085 -4 3 C-4 2.34 -4 1.68 -4 1 C-2 0 -2 0 0 0 Z " fill="#F16656" transform="translate(130,27)"/>
<path d="M0 0 C0.33 0 0.66 0 1 0 C1 3.96 1 7.92 1 12 C0.67 12 0.34 12 0 12 C-0.66 18.6 -1.32 25.2 -2 32 C-2.33 32 -2.66 32 -3 32 C-3.46753247 6.93506494 -3.46753247 6.93506494 0 0 Z " fill="#CDB7F6" transform="translate(96,228)"/>
<path d="M0 0 C1.485 0.99 1.485 0.99 3 2 C3.66 1.67 4.32 1.34 5 1 C9.9271137 5.54810496 9.9271137 5.54810496 10.3125 7.9375 C11.38875055 11.16625166 13.70856939 12.0442024 16.5625 13.75 C17.57441406 14.36359375 18.58632812 14.9771875 19.62890625 15.609375 C20.41136719 16.06828125 21.19382813 16.5271875 22 17 C21.01 17.33 20.02 17.66 19 18 C16.51953125 16.63671875 16.51953125 16.63671875 13.8125 14.6875 C12.91144531 14.05199219 12.01039062 13.41648437 11.08203125 12.76171875 C10.05142578 11.88966797 10.05142578 11.88966797 9 11 C9 10.34 9 9.68 9 9 C7.68 8.34 6.36 7.68 5 7 C5 6.34 5 5.68 5 5 C4.360625 4.731875 3.72125 4.46375 3.0625 4.1875 C1 3 1 3 0 0 Z " fill="#D4C4F9" transform="translate(112,302)"/>
<path d="M0 0 C6 3 12 6 18 9 C18 9.99 18 10.98 18 12 C19.32 12.66 20.64 13.32 22 14 C18.10126368 13.42318161 15.39726547 12.2684358 12.0625 10.1875 C11.19882813 9.64867187 10.33515625 9.10984375 9.4453125 8.5546875 C8.63835937 8.04164063 7.83140625 7.52859375 7 7 C6.35804687 6.61070312 5.71609375 6.22140625 5.0546875 5.8203125 C2.14622756 4.00779399 1.11916291 3.35748873 0 0 Z " fill="#F29890" transform="translate(120,153)"/>
<path d="M0 0 C0.66 0.33 1.32 0.66 2 1 C-4.30693069 9.10891089 -4.30693069 9.10891089 -8.375 11.25 C-12.17708945 13.7847263 -14.42512997 17.27484439 -17 21 C-17 17.48336486 -16.32212716 16.68152977 -14.25 13.9375 C-13.73953125 13.24527344 -13.2290625 12.55304688 -12.703125 11.83984375 C-10.91306852 9.90609008 -9.35815391 9.1070912 -7 8 C-6.690625 7.38125 -6.38125 6.7625 -6.0625 6.125 C-4.63101256 3.26202511 -2.54558673 1.87569549 0 0 Z " fill="#A9E6CC" transform="translate(124,344)"/>
<path d="M0 0 C-2.1290142 2.34191563 -4.04408729 3.83554954 -7 5 C-8.32 5 -9.64 5 -11 5 C-11 5.66 -11 6.32 -11 7 C-14.4352048 9.29013653 -15.985331 9.17842973 -20 9 C-17.44932867 6.07112568 -14.57120671 4.55279142 -11.125 2.8125 C-10.09632813 2.28269531 -9.06765625 1.75289062 -8.0078125 1.20703125 C-5.04624895 0.01855965 -3.14635947 -0.26122911 0 0 Z " fill="#F39387" transform="translate(150,18)"/>
<path d="M0 0 C0.33 0 0.66 0 1 0 C1.3718693 5.09770828 0.23363859 8.31465455 -2 12.875 C-2.556875 14.02742188 -3.11375 15.17984375 -3.6875 16.3671875 C-4.120625 17.23601562 -4.55375 18.10484375 -5 19 C-5.66 19 -6.32 19 -7 19 C-6.690625 18.175 -6.38125 17.35 -6.0625 16.5 C-4.88122417 12.60873845 -4.41775832 9.03833047 -4 5 C-3.34 5 -2.68 5 -2 5 C-1.855625 4.360625 -1.71125 3.72125 -1.5625 3.0625 C-1 1 -1 1 0 0 Z " fill="#93DBBB" transform="translate(247,430)"/>
<path d="M0 0 C0 0.66 0 1.32 0 2 C-2.26504965 3.19984797 -4.53589888 4.38494769 -6.8125 5.5625 C-7.45509766 5.90474609 -8.09769531 6.24699219 -8.75976562 6.59960938 C-10.46926395 7.4765023 -12.23321294 8.24515617 -14 9 C-14.99 8.67 -15.98 8.34 -17 8 C-16.360625 7.71125 -15.72125 7.4225 -15.0625 7.125 C-12.84793921 6.17176549 -12.84793921 6.17176549 -12 4 C-11.01 3.34 -10.02 2.68 -9 2 C-9 1.67 -9 1.34 -9 1 C-2.25 0 -2.25 0 0 0 Z " fill="#89D7B5" transform="translate(217,473)"/>
<path d="M0 0 C5.26770198 0.65759749 10.30133173 1.73264124 15.4375 3.0625 C16.16904297 3.24876953 16.90058594 3.43503906 17.65429688 3.62695312 C19.43703198 4.0813758 21.21863787 4.54022466 23 5 C23 5.33 23 5.66 23 6 C21.41913952 6.36504603 19.83516093 6.71660506 18.25 7.0625 C17.36828125 7.25972656 16.4865625 7.45695313 15.578125 7.66015625 C13.01320972 7.99825872 11.42908361 7.81158635 9 7 C9.99 6.34 10.98 5.68 12 5 C8.04 3.68 4.08 2.36 0 1 C0 0.67 0 0.34 0 0 Z " fill="#F5D4E2" transform="translate(142,167)"/>
<path d="M0 0 C0.33 0 0.66 0 1 0 C1.33773437 1.25296875 1.67546875 2.5059375 2.0234375 3.796875 C2.47373798 5.44797678 2.92427101 7.09901515 3.375 8.75 C3.59671875 9.575 3.8184375 10.4 4.046875 11.25 C4.26601563 12.04921875 4.48515625 12.8484375 4.7109375 13.671875 C4.90993652 14.4050293 5.10893555 15.13818359 5.31396484 15.89355469 C5.95390409 18.05237504 5.95390409 18.05237504 7.10400391 20.12988281 C8 22 8 22 7.625 24.25 C7.41875 24.8275 7.2125 25.405 7 26 C6.49339844 24.67935547 6.49339844 24.67935547 5.9765625 23.33203125 C5.53054688 22.17058594 5.08453125 21.00914062 4.625 19.8125 C4.18414062 18.66394531 3.74328125 17.51539063 3.2890625 16.33203125 C2.51111845 14.32116375 1.70429539 12.3206786 0.84375 10.34375 C-0.43494799 6.79181114 -0.12718925 3.75208284 0 0 Z " fill="#26A7EC" transform="translate(252,262)"/>
<path d="M0 0 C5.4185766 -0.22577402 9.77487721 0.53329887 15 2 C12.08149788 3.94566808 10.42377152 4.5152457 7.0625 5.1875 C6.20785156 5.36667969 5.35320312 5.54585938 4.47265625 5.73046875 C1.98865141 6.00123705 0.35550498 5.77059444 -2 5 C-0.35 4.34 1.3 3.68 3 3 C2.01 2.01 1.02 1.02 0 0 Z " fill="#D1E9F0" transform="translate(150,327)"/>
<path d="M0 0 C-1.07421875 1.46484375 -1.07421875 1.46484375 -3 3 C-6.14453125 3.44140625 -6.14453125 3.44140625 -9.8125 3.5625 C-14.61284799 3.73228723 -18.50045 4.2842451 -23 6 C-19.20906672 2.03675157 -16.41752559 1.7652296 -11.09375 1.28125 C-1.36708861 -0.02531646 -1.36708861 -0.02531646 0 0 Z " fill="#69C9A2" transform="translate(161,331)"/>
<path d="M0 0 C-2.37417093 2.62408366 -4.84911879 4.38613402 -8 6 C-9.32 6 -10.64 6 -12 6 C-11.5 3.625 -11.5 3.625 -10 1 C-6.69109796 -0.45816022 -3.33237756 -1.66618878 0 0 Z " fill="#5CC8F4" transform="translate(379,313)"/>
<path d="M0 0 C0.33 1.32 0.66 2.64 1 4 C0.01 4.33 -0.98 4.66 -2 5 C-2.33 6.65 -2.66 8.3 -3 10 C-3.99 10.33 -4.98 10.66 -6 11 C-7.02281518 13.09719872 -7.02281518 13.09719872 -7.6875 15.5625 C-8.06455078 16.80193359 -8.06455078 16.80193359 -8.44921875 18.06640625 C-8.63097656 18.70449219 -8.81273438 19.34257813 -9 20 C-10.10235591 16.6258971 -9.97848812 15.93653994 -8.75 12.3125 C-7 9 -7 9 -4 8 C-3.28293018 6.01751285 -2.61709587 4.01584651 -2 2 C-1.34 1.34 -0.68 0.68 0 0 Z " fill="#F4988D" transform="translate(107,50)"/>
<path d="M0 0 C0.66 0.33 1.32 0.66 2 1 C1.071875 1.3403125 1.071875 1.3403125 0.125 1.6875 C-2.64848291 3.40053356 -2.85683637 4.99919547 -4 8 C-6.44308811 10.93170573 -8.18268377 12.45466911 -12 13 C-11.1875 11.0625 -11.1875 11.0625 -10 9 C-9.01 8.67 -8.02 8.34 -7 8 C-6.67 7.01 -6.34 6.02 -6 5 C-4.12382302 3.15500602 -2.07262391 1.6316401 0 0 Z " fill="#C7B1F5" transform="translate(124,187)"/>
<path d="M0 0 C0.99 0.33 1.98 0.66 3 1 C2.2575 1.5775 1.515 2.155 0.75 2.75 C-1.98273719 4.8757603 -1.98273719 4.8757603 -4 7.1875 C-6.33015155 9.29919984 -7.91664711 9.65740523 -11 10 C-10.34 9.01 -9.68 8.02 -9 7 C-8.34 7 -7.68 7 -7 7 C-7 6.01 -7 5.02 -7 4 C-4.69 3.34 -2.38 2.68 0 2 C0 1.34 0 0.68 0 0 Z " fill="#F4AB7D" transform="translate(371,157)"/>
<path d="M0 0 C0.33 0.66 0.66 1.32 1 2 C-0.24542058 3.75326198 -1.49654053 5.50247622 -2.75 7.25 C-3.44609375 8.22453125 -4.1421875 9.1990625 -4.859375 10.203125 C-6.76452299 12.69233296 -8.72684621 14.84971939 -11 17 C-11.66 16.67 -12.32 16.34 -13 16 C-12.48050781 15.43152344 -11.96101562 14.86304688 -11.42578125 14.27734375 C-7.28691701 9.69475654 -3.47530782 5.10435836 0 0 Z " fill="#C7F2E0" transform="translate(239,449)"/>
<path d="M0 0 C0.86882812 0.0721875 1.73765625 0.144375 2.6328125 0.21875 C3.78523437 0.3115625 4.93765625 0.404375 6.125 0.5 C7.26195312 0.5928125 8.39890625 0.685625 9.5703125 0.78125 C12.72597149 0.9825221 15.83921165 1.03842904 19 1 C16.09064546 2.62737868 13.68626361 3.34972896 10.375 3.6875 C9.59898437 3.77386719 8.82296875 3.86023438 8.0234375 3.94921875 C6 4 6 4 4 3 C2.67139075 2.64830932 1.33841672 2.31229724 0 2 C0 1.34 0 0.68 0 0 Z " fill="#30B379" transform="translate(179,481)"/>
<path d="M0 0 C7.08373351 -0.43369797 11.82505746 1.90580221 18 5 C11.44074057 4.61020794 6.05473373 3.57886807 0 1 C0 0.67 0 0.34 0 0 Z " fill="#A1E3F8" transform="translate(298,324)"/>
<path d="M0 0 C0.66 0.33 1.32 0.66 2 1 C2 1.66 2 2.32 2 3 C2.598125 3.103125 3.19625 3.20625 3.8125 3.3125 C6.28243264 4.08876455 7.32251235 5.07088921 9 7 C4.5428126 6.73781251 2.48477302 6.42288711 -0.9375 3.4375 C-1.618125 2.633125 -2.29875 1.82875 -3 1 C-2.01 0.67 -1.02 0.34 0 0 Z " fill="#79D2AA" transform="translate(139,476)"/>
<path d="M0 0 C4 1.33333333 8 2.66666667 12 4 C12 4.99 12 5.98 12 7 C12.66 7.33 13.32 7.66 14 8 C10.61108678 7.31113213 7.81988387 6.01283514 4.75 4.4375 C3.85796875 3.98246094 2.9659375 3.52742188 2.046875 3.05859375 C1.37140625 2.70925781 0.6959375 2.35992187 0 2 C0 1.34 0 0.68 0 0 Z " fill="#98E1F9" transform="translate(284,316)"/>
<path d="M0 0 C1.28497537 3.85492611 0.4052209 5.40346836 -0.9375 9.1875 C-1.31777344 10.27417969 -1.69804687 11.36085937 -2.08984375 12.48046875 C-2.39019531 13.31191406 -2.69054687 14.14335937 -3 15 C-3.33 15 -3.66 15 -4 15 C-4 10.71 -4 6.42 -4 2 C-3.34 2.66 -2.68 3.32 -2 4 C-1.34 2.68 -0.68 1.36 0 0 Z " fill="#CFEFFE" transform="translate(255,220)"/>
<path d="M0 0 C-0.33 0.66 -0.66 1.32 -1 2 C-1.99 2 -2.98 2 -4 2 C-4.33 2.99 -4.66 3.98 -5 5 C-7.5625 6.1875 -7.5625 6.1875 -10 7 C-10 6.34 -10 5.68 -10 5 C-9.34 5 -8.68 5 -8 5 C-8 3.35 -8 1.7 -8 0 C-4.71023192 -1.09658936 -3.28696233 -0.79953138 0 0 Z " fill="#20B475" transform="translate(209,475)"/>
<path d="M0 0 C0 3 0 3 -2.3125 5.6875 C-5 8 -5 8 -8 8 C-7.9375 5.6875 -7.9375 5.6875 -7 3 C-3.4375 1.1875 -3.4375 1.1875 0 0 Z " fill="#7FD9F8" transform="translate(388,302)"/>
<path d="M0 0 C1.65 0 3.3 0 5 0 C6.33333333 4 7.66666667 8 9 12 C6 11 6 11 4.90234375 9.2578125 C4.58394531 8.55398438 4.26554687 7.85015625 3.9375 7.125 C2.74888621 4.53773626 1.59526008 2.39289013 0 0 Z " fill="#51BDF3" transform="translate(264,295)"/>
<path d="M0 0 C5.28 0 10.56 0 16 0 C12.83759418 2.10827055 11.49342531 2.33817465 7.8125 2.625 C6.46091797 2.73714844 6.46091797 2.73714844 5.08203125 2.8515625 C4.05142578 2.92503906 4.05142578 2.92503906 3 3 C3 2.34 3 1.68 3 1 C2.01 0.67 1.02 0.34 0 0 Z " fill="#DEDBD6" transform="translate(304,172)"/>
<path d="M0 0 C0.66 0 1.32 0 2 0 C2 0.66 2 1.32 2 2 C2.99 2 3.98 2 5 2 C5.33 3.98 5.66 5.96 6 8 C4.125 7.375 4.125 7.375 2 6 C0.75 2.875 0.75 2.875 0 0 Z " fill="#67C89E" transform="translate(111,456)"/>
<path d="M0 0 C0.99 0 1.98 0 3 0 C1.94124926 3.40312738 0.99097846 6.01353231 -1 9 C-1.66 8.67 -2.32 8.34 -3 8 C-2.67 6.02 -2.34 4.04 -2 2 C-1.34 2 -0.68 2 0 2 C0 1.34 0 0.68 0 0 Z " fill="#74CCF6" transform="translate(395,289)"/>
<path d="M0 0 C3.34708051 1.54841575 6.24667512 3.49105864 9.25 5.625 C10.14203125 6.25664062 11.0340625 6.88828125 11.953125 7.5390625 C12.96632812 8.26222656 12.96632812 8.26222656 14 9 C13.01 9.495 13.01 9.495 12 10 C9.43359375 8.671875 9.43359375 8.671875 6.4375 6.75 C5.44621094 6.12609375 4.45492187 5.5021875 3.43359375 4.859375 C1 3 1 3 0 0 Z " fill="#FED5CF" transform="translate(120,153)"/>
<path d="M0 0 C0.33 0 0.66 0 1 0 C1 2.64 1 5.28 1 8 C0.34 8 -0.32 8 -1 8 C-1.33 9.65 -1.66 11.3 -2 13 C-3.18771723 9.57056481 -2.80226223 7.62215325 -1.5625 4.25 C-1.27503906 3.45078125 -0.98757812 2.6515625 -0.69140625 1.828125 C-0.46324219 1.22484375 -0.23507813 0.6215625 0 0 Z " fill="#E95F51" transform="translate(98,68)"/>
<path d="M0 0 C-0.0625 1.8125 -0.0625 1.8125 -1 4 C-4.4375 5.6875 -4.4375 5.6875 -8 7 C-8.99 7.495 -8.99 7.495 -10 8 C-9.25 6.0625 -9.25 6.0625 -8 4 C-5.875 3.25 -5.875 3.25 -4 3 C-4 2.34 -4 1.68 -4 1 C-2 0 -2 0 0 0 Z " fill="#F7AFA5" transform="translate(130,27)"/>
<path d="M0 0 C5.65394631 -0.34615998 9.03006806 0.56574762 14 3 C14 3.33 14 3.66 14 4 C8.32723489 4.29341888 5.00932754 4.00559652 0 1 C0 0.67 0 0.34 0 0 Z " fill="#F19565" transform="translate(344,17)"/>
<path d="M0 0 C2.75328098 2.37783357 3.96944911 4.51198161 5 8 C5.07646165 10.3320802 5.09143299 12.66845878 5 15 C4.67 15 4.34 15 4 15 C3.566875 13.453125 3.566875 13.453125 3.125 11.875 C2.43568995 9.44764391 1.68754326 7.07998847 0.875 4.6875 C0 2 0 2 0 0 Z " fill="#A0E3F9" transform="translate(401,220)"/>
<path d="M0 0 C1.55831174 5.69019895 -0.29616382 8.82744383 -3 14 C-4.37095624 10.30962722 -3.60010967 8.29116165 -2.0625 4.75 C-1.68222656 3.85796875 -1.30195313 2.9659375 -0.91015625 2.046875 C-0.60980469 1.37140625 -0.30945313 0.6959375 0 0 Z " fill="#27A9E7" transform="translate(257,218)"/>
<path d="M0 0 C0.66 0.33 1.32 0.66 2 1 C-1.9050849 4.55007718 -4.97734643 5.81819916 -10 7 C-7.20283196 3.70921407 -3.80471422 1.93694542 0 0 Z " fill="#8D6CED" transform="translate(136,181)"/>
<path d="M0 0 C0.99 0.33 1.98 0.66 3 1 C3.66 0.67 4.32 0.34 5 0 C5.99 2.64 6.98 5.28 8 8 C7.01 7.67 6.02 7.34 5 7 C5 6.34 5 5.68 5 5 C4.360625 4.731875 3.72125 4.46375 3.0625 4.1875 C1 3 1 3 0 0 Z " fill="#F8B1A7" transform="translate(112,145)"/>
<path d="M0 0 C1 2 1 2 0.9375 4.4375 C0 7 0 7 -3.0625 8.8125 C-4.031875 9.204375 -5.00125 9.59625 -6 10 C-4.6302836 6.00499382 -2.74277578 3.19990508 0 0 Z " fill="#33B57D" transform="translate(110,360)"/>
<path d="M0 0 C1.32 0.66 2.64 1.32 4 2 C3.34 3.98 2.68 5.96 2 8 C0.4375 6.8125 0.4375 6.8125 -1 5 C-0.6875 2.3125 -0.6875 2.3125 0 0 Z " fill="#26B477" transform="translate(106,444)"/>
<path d="M0 0 C3.625 -0.1875 3.625 -0.1875 7 0 C7 0.66 7 1.32 7 2 C2.545 2.495 2.545 2.495 -2 3 C-1.34 2.01 -0.68 1.02 0 0 Z " fill="#21B578" transform="translate(161,331)"/>
<path d="M0 0 C1.83836919 3.67673838 2.93651813 7.04992447 4 11 C2.68 10.34 1.36 9.68 0 9 C0 6.03 0 3.06 0 0 Z " fill="#BBE7FC" transform="translate(251,266)"/>
<path d="M0 0 C0.99 0.33 1.98 0.66 3 1 C2.01 2.32 1.02 3.64 0 5 C-1.32 4.67 -2.64 4.34 -4 4 C-2.68 2.68 -1.36 1.36 0 0 Z " fill="#35AE7B" transform="translate(115,354)"/>
<path d="M0 0 C0.66 0.33 1.32 0.66 2 1 C0.02 2.98 -1.96 4.96 -4 7 C-4.99 6.67 -5.98 6.34 -7 6 C-4.69 4.02 -2.38 2.04 0 0 Z " fill="#17A4EB" transform="translate(284,186)"/>
<path d="M0 0 C0 0.99 0 1.98 0 3 C-3.33333333 6 -3.33333333 6 -6 6 C-6.33 4.68 -6.66 3.36 -7 2 C-6.21625 2.04125 -5.4325 2.0825 -4.625 2.125 C-1.83883881 2.28728734 -1.83883881 2.28728734 0 0 Z " fill="#FAC2A4" transform="translate(387,147)"/>
<path d="M0 0 C-2.06756277 2.7972908 -3.14440371 3.02692273 -6.6875 3.6875 C-7.780625 3.790625 -8.87375 3.89375 -10 4 C-6.66064924 0.50886057 -4.84725717 -0.1275594 0 0 Z " fill="#FAC1BB" transform="translate(150,18)"/>
<path d="M0 0 C0.66 0 1.32 0 2 0 C2 0.99 2 1.98 2 3 C1.01 3.66 0.02 4.32 -1 5 C-1.66 5.99 -2.32 6.98 -3 8 C-3 3.77471908 -2.74375671 2.95481492 0 0 Z " fill="#8A66EC" transform="translate(113,199)"/>
<path d="M0 0 C-2 2 -2 2 -5.625 2.125 C-6.73875 2.08375 -7.8525 2.0425 -9 2 C-5.945634 -1.054366 -3.9532319 -1.22686507 0 0 Z " fill="#3BB2EB" transform="translate(313,175)"/>
</svg>
